<?xml version="1.0" encoding="UTF-8"?>
<svg version="1.1" xmlns="http://www.w3.org/2000/svg" width="512" height="512">
<path d="M0 0 C1.08908346 -0.00551503 1.08908346 -0.00551503 2.20016861 -0.01114148 C4.62800051 -0.02213587 7.05578955 -0.02601497 9.48364258 -0.02983093 C11.22681309 -0.03609894 12.96998228 -0.04274604 14.71315002 -0.04974365 C20.43481522 -0.07075171 26.15648058 -0.08114512 31.87817383 -0.09111023 C33.85192885 -0.09515943 35.82568374 -0.0992764 37.79943848 -0.10346031 C47.07658315 -0.12250727 56.3537199 -0.13673761 65.63088036 -0.14507228 C76.31830962 -0.15483384 87.00553118 -0.1811272 97.69288731 -0.22157317 C105.96658529 -0.25180333 114.24022398 -0.26654781 122.5139761 -0.26985329 C127.44905765 -0.27219649 132.3839172 -0.28106107 137.31893921 -0.30631447 C141.96802777 -0.32972029 146.61675012 -0.33377851 151.26588249 -0.32355309 C152.96329916 -0.32306059 154.66073463 -0.32929554 156.35809517 -0.34310913 C170.51805357 -0.45180932 182.96747522 0.92424334 193.69067383 11.14717102 C194.5356543 11.93221008 194.5356543 11.93221008 195.39770508 12.73310852 C205.12930497 22.83426283 205.41737038 35.20633059 205.32177734 48.33320618 C205.32692495 50.14139506 205.33421254 51.9495789 205.34346008 53.75775146 C205.36187248 58.63584738 205.34910113 63.51339218 205.32936978 68.39146471 C205.31290264 73.513032 205.32180712 78.6345666 205.32688904 83.75614929 C205.33140019 92.35207353 205.31559888 100.94777945 205.28759766 109.5436554 C205.25552987 119.46403074 205.25557266 129.38401297 205.27281243 139.3044163 C205.2887053 148.87365725 205.2819275 158.44275487 205.26487541 168.01198959 C205.25802531 172.07316812 205.25901627 176.13423105 205.26642036 180.19540787 C205.27411188 184.9808946 205.26186389 189.76593668 205.23457146 194.55134773 C205.2277173 196.30160643 205.22755758 198.05190689 205.23478699 199.80216408 C205.28696576 214.08633377 203.06289202 224.42953815 193.06567383 235.20967102 C185.64672968 242.46189732 177.47038021 245.29703349 167.29832458 245.29434204 C166.17777942 245.29985707 166.17777942 245.29985707 165.03459698 245.30548352 C162.52989361 245.31650168 160.02523177 245.32036106 157.52050781 245.32417297 C155.72497934 245.33043915 153.92945216 245.33708609 152.13392639 245.34408569 C146.23488262 245.36511423 140.33583862 245.37548855 134.43676758 245.38545227 C132.4038447 245.3895006 130.37092195 245.39361755 128.33799934 245.39780235 C118.78427647 245.4168532 109.2305613 245.43108315 99.67682308 245.43941432 C88.66109367 245.44917969 77.64556557 245.47548141 66.62990707 245.51591522 C58.10827958 245.54611711 49.58670964 245.56088716 41.06502968 245.56419533 C35.9790933 245.56654161 30.89337201 245.57544681 25.80749321 245.60065651 C21.01807452 245.62401284 16.22901138 245.62814014 11.4395504 245.61789513 C9.68808049 245.61740145 7.93659263 245.62367185 6.18517685 245.63745117 C-7.75532893 245.74093235 -18.83524583 244.10645724 -29.30932617 234.14717102 C-39.63742298 223.69636415 -40.90697341 210.86009546 -40.82652283 196.88188362 C-40.8214119 196.0623313 -40.81630096 195.24277897 -40.81103516 194.39839172 C-40.81482651 192.6491706 -40.82033324 190.8999525 -40.82740784 189.15074158 C-40.84127019 184.43805048 -40.83025942 179.72572824 -40.81369662 175.01305795 C-40.79975982 170.06233254 -40.80631572 165.11162667 -40.80982971 160.16088867 C-40.81252429 151.85344048 -40.79911857 143.54613741 -40.77587891 135.23872375 C-40.74924766 125.65295061 -40.74753327 116.06741953 -40.75926727 106.48162204 C-40.77006743 97.23115735 -40.76384211 87.98077968 -40.74971199 78.73032188 C-40.74397424 74.80592463 -40.74401733 70.88159151 -40.74877739 66.95719337 C-40.75356992 62.33345526 -40.74335172 57.70998037 -40.72182274 53.08629227 C-40.71628658 51.39569295 -40.71576022 49.70506818 -40.7207756 48.01446724 C-40.75624893 34.33601047 -39.30797361 23.06944236 -30.30932617 12.14717102 C-21.09990665 3.93995304 -12.31239096 0.04052076 0 0 Z " fill="#96DC3C" transform="translate(307.309326171875,266.8528289794922)"/>
<path d="M0 0 C1.12561214 -0.00657338 1.12561214 -0.00657338 2.27396393 -0.01327956 C4.79014845 -0.02664088 7.30629797 -0.03284049 9.82250977 -0.03897095 C11.62626808 -0.04687421 13.43002482 -0.0551433 15.23377991 -0.06375122 C21.16047663 -0.08995208 27.08718033 -0.10527998 33.01391602 -0.11953735 C35.05672205 -0.1248984 37.09952804 -0.13027592 39.14233398 -0.13566971 C47.64361967 -0.1572983 56.14490348 -0.17603265 64.64620972 -0.1872921 C76.81401164 -0.20351522 88.98149343 -0.23665359 101.14917469 -0.29369295 C109.71242935 -0.33246074 118.27559863 -0.35193306 126.83893871 -0.35721266 C131.94899501 -0.3608576 137.0587097 -0.37278713 142.16867065 -0.4053154 C146.9819477 -0.43551533 151.7946786 -0.44166551 156.60803032 -0.42993164 C158.36715169 -0.42971188 160.12629927 -0.43793548 161.88533211 -0.45558548 C176.05596416 -0.58994215 186.87182935 1.50972958 197.45141602 11.7671814 C207.43556773 22.98099885 208.02280022 36.24735768 207.98046875 50.53036499 C207.98617944 52.27589859 207.99314639 54.02142846 208.00126648 55.76695251 C208.01913665 60.48401211 208.01804101 65.20088506 208.01232409 69.91796827 C208.00922308 73.86653901 208.01533488 77.81507436 208.02136284 81.76364005 C208.03538654 91.08451218 208.03386498 100.40529261 208.02246094 109.72616577 C208.01098403 119.31811789 208.02505317 128.90979026 208.05185741 138.50170553 C208.07406281 146.75937114 208.08064084 155.01694926 208.074781 163.27464259 C208.07142153 168.19673721 208.07375898 173.11865259 208.09103203 178.04072189 C208.10657626 182.67185173 208.10246325 187.3025694 208.08372688 191.9336834 C208.08006149 193.62506091 208.08308907 195.31646948 208.09361267 197.00781822 C208.17415037 211.03157877 206.3293277 223.35269085 196.57641602 234.15390015 C185.00023621 244.60656857 171.81397125 245.74814801 156.94116211 245.65560913 C155.19208849 245.65939956 153.44301788 245.66490552 151.69395447 245.67198181 C146.97707237 245.68585733 142.26055826 245.67482351 137.54369688 245.6582706 C132.59029626 245.64434397 127.63691537 245.65088864 122.6835022 245.65440369 C114.37007773 245.65709931 106.05679818 245.64368433 97.7434082 245.62045288 C88.15027148 245.59382976 78.55737666 245.59210406 68.96421564 245.60384125 C59.70894761 245.61464178 50.45376654 245.60841523 41.1985054 245.59428596 C37.27131708 245.58854766 33.34419284 245.58859177 29.41700363 245.59335136 C24.78917499 245.59814409 20.16160933 245.58792491 15.53383064 245.56639671 C13.84161961 245.56086048 12.14938314 245.56033426 10.45717049 245.56534958 C-3.73914536 245.60213001 -15.62482663 243.92022888 -26.65405273 234.18515015 C-37.23821166 223.22369475 -38.15951781 211.36320716 -38.0546875 196.96786499 C-38.05983511 195.15967611 -38.0671227 193.35149226 -38.07637024 191.5433197 C-38.09478264 186.66522378 -38.08201129 181.78767898 -38.06227994 176.90960646 C-38.0458128 171.78803916 -38.05471728 166.66650456 -38.05979919 161.54492188 C-38.06431035 152.94899764 -38.04850903 144.35329171 -38.02050781 135.75741577 C-37.98844002 125.83704042 -37.98848282 115.9170582 -38.00572258 105.99665487 C-38.02161545 96.42741392 -38.01483766 86.8583163 -37.99778557 77.28908157 C-37.99093547 73.22790305 -37.99192643 69.16684012 -37.99933052 65.1056633 C-38.00702203 60.32017656 -37.99477404 55.53513449 -37.96748161 50.74972343 C-37.96062746 48.99946474 -37.96046774 47.24916428 -37.96769714 45.49890709 C-38.01646813 32.14763469 -36.43117592 21.70053762 -26.98608398 11.52890015 C-18.69047785 3.84028958 -11.34128126 0.00806471 0 0 Z " fill="#FD6319" transform="translate(37.423583984375,-0.153900146484375)"/>
<path d="M0 0 C1.80818888 -0.00514761 3.61637273 -0.0124352 5.42454529 -0.02168274 C10.30264121 -0.04009514 15.18018601 -0.02732379 20.05825853 -0.00759244 C25.17982583 0.0088747 30.30136043 -0.00002978 35.42294312 -0.00511169 C44.01886735 -0.00962285 52.61457328 0.00617847 61.21044922 0.03417969 C71.13082457 0.06624748 81.05080679 0.06620468 90.97121012 0.04896492 C100.54045107 0.03307205 110.10954869 0.03984984 119.67878342 0.05690193 C123.73996194 0.06375203 127.80102487 0.06276107 131.86220169 0.05535698 C136.64768843 0.04766547 141.4327305 0.05991346 146.21814156 0.08720589 C147.96840025 0.09406004 149.71870071 0.09421976 151.4689579 0.08699036 C164.8202303 0.03821937 175.26732737 1.62351158 185.43896484 11.06860352 C193.11466181 19.35027656 196.96413251 26.69792012 196.96113586 38.02345276 C196.96481255 38.77048287 196.96848924 39.51751298 196.97227734 40.28718036 C196.98329551 42.79188373 196.98715488 45.29654558 196.9909668 47.80126953 C196.99723297 49.59679801 197.00387991 51.39232519 197.01087952 53.18785095 C197.03190805 59.08689473 197.04228238 64.98593872 197.05224609 70.88500977 C197.05629443 72.91793265 197.06041137 74.95085539 197.06459618 76.983778 C197.08364703 86.53750088 197.09787698 96.09121604 197.10620815 105.64495426 C197.11597351 116.66068367 197.14227523 127.67621177 197.18270904 138.69187027 C197.21291094 147.21349777 197.22768098 155.7350677 197.23098916 164.25674766 C197.23333544 169.34268404 197.24224064 174.42840533 197.26745033 179.51428413 C197.29080667 184.30370282 197.29493396 189.09276597 197.28468895 193.88222694 C197.28419528 195.63369686 197.29046567 197.38518472 197.304245 199.13660049 C197.40772617 213.07710627 195.77325106 224.15702318 185.81396484 234.63110352 C174.65534052 245.65870681 160.87252644 246.22663366 146.09692383 246.14868164 C144.35094624 246.15411384 142.60497325 246.16124261 140.85900879 246.16992188 C136.15446128 246.18802638 131.45026794 246.18114174 126.7457149 246.16840553 C121.80125715 246.15821226 116.85682784 246.16768851 111.91236877 246.1739502 C103.61331794 246.18120761 95.31440996 246.1716884 87.01538086 246.15258789 C77.44550875 246.13081567 67.87597754 246.13788079 58.30611366 246.15989351 C50.06111674 246.17809343 41.81622194 246.18058366 33.5712114 246.17013884 C28.65923326 246.16393001 23.74741493 246.16299606 18.83544731 246.17628479 C14.21657108 246.18791004 9.59813098 246.17969672 4.97930145 246.15670776 C3.29276564 246.15145642 1.60619259 246.15287252 -0.08032799 246.16175842 C-14.05899521 246.22857235 -26.43960902 244.39213072 -37.18603516 234.63110352 C-41.91893877 229.15700934 -45.04885991 223.51755709 -47.18603516 216.63110352 C-47.37120288 216.04461249 -47.5563706 215.45812147 -47.74714947 214.85385799 C-48.36982163 211.70030943 -48.32263654 208.6559383 -48.33320618 205.44203186 C-48.33688286 204.71683064 -48.34055955 203.99162943 -48.34434766 203.24445242 C-48.35536357 200.81351447 -48.35922485 198.3826193 -48.36303711 195.95166016 C-48.36930358 194.20863714 -48.37595054 192.46561545 -48.38294983 190.72259521 C-48.40397912 184.99549284 -48.4143544 179.26839024 -48.42431641 173.54125977 C-48.42836504 171.56657841 -48.432482 169.59189719 -48.43666649 167.61721611 C-48.45571939 158.33472865 -48.46994756 149.05224913 -48.47827846 139.76974589 C-48.48803738 129.07381653 -48.51432132 118.37809487 -48.55477935 107.68223864 C-48.5850103 99.40431456 -48.59975413 91.12644976 -48.60305947 82.84847158 C-48.60540291 77.91002174 -48.61427043 72.97179374 -48.63952065 68.0334034 C-48.66292731 63.38022431 -48.66698434 58.7274111 -48.65675926 54.07418823 C-48.65626676 52.37515986 -48.66250194 50.67611271 -48.67631531 48.97714043 C-48.78494718 34.81229024 -47.41293149 22.35846499 -37.18603516 11.63110352 C-36.66267578 11.0677832 -36.13931641 10.50446289 -35.60009766 9.92407227 C-25.49894334 0.19247238 -13.12687559 -0.09559303 0 0 Z " fill="#FCD642" transform="translate(315.18603515625,-0.631103515625)"/>
<path d="M0 0 C1.74877753 -0.00407106 3.49755249 -0.00941592 5.24632263 -0.01593018 C9.97152261 -0.02954608 14.69652493 -0.02432888 19.42172813 -0.01479292 C24.38048182 -0.00716655 29.33921924 -0.01425017 34.29797363 -0.01895142 C42.62332173 -0.02440032 50.94858984 -0.0172401 59.27392578 -0.00292969 C68.88178242 0.01339514 78.48944804 0.00810602 88.09730005 -0.0084089 C96.36512203 -0.02204846 104.6328867 -0.02393137 112.9007163 -0.0160929 C117.83053561 -0.01142995 122.76026529 -0.01075348 127.69007874 -0.02070236 C132.32607471 -0.02940576 136.9618258 -0.02328881 141.59779549 -0.00601959 C143.29323483 -0.00207271 144.988695 -0.00315777 146.6841259 -0.00980759 C161.38360865 -0.06212061 171.89684389 1.90647987 183.27929688 11.70068359 C192.14148259 21.99998051 195.05418273 31.60017004 194.99584961 45.10839844 C195.00271286 46.23484772 195.00957611 47.361297 195.01664734 48.5218811 C195.0348273 52.21442554 195.03109276 55.90654189 195.02539062 59.59912109 C195.02995423 62.17599627 195.03526034 64.75287023 195.04127502 67.32974243 C195.05018699 72.71435097 195.04803756 78.0987966 195.0378418 83.48339844 C195.02632381 89.70369712 195.0405104 95.92356649 195.06723827 102.14380872 C195.09205265 108.14424236 195.09457757 114.14445466 195.08812141 120.14494705 C195.08796786 122.69270164 195.09404037 125.24046439 195.10641289 127.78818893 C195.12124452 131.34056711 195.11070513 134.89198831 195.09350586 138.44433594 C195.10800781 140.02622711 195.10800781 140.02622711 195.12280273 141.64007568 C195.05080808 148.72002883 195.05080808 148.72002883 192.74794006 152.07217407 C190.59179688 153.38818359 190.59179688 153.38818359 187.59179688 153.38818359 C187.59179688 160.64818359 187.59179688 167.90818359 187.59179688 175.38818359 C189.24179688 175.71818359 190.89179688 176.04818359 192.59179688 176.38818359 C195.88469502 181.32753081 194.96365669 187.21447181 194.96240234 192.99951172 C194.96671504 195.22103116 195.00285648 197.44046141 195.04101562 199.66162109 C195.13699518 211.65327184 193.70380785 222.97394053 185.56445312 232.39208984 C176.06610947 242.0032851 166.52706944 245.76323573 153.04869282 245.92349148 C150.56931314 245.93054851 148.09043569 245.9183922 145.61108398 245.90576172 C143.81289607 245.91119072 142.01471261 245.91831773 140.21653748 245.92700195 C135.36118815 245.94514442 130.50618107 245.93820583 125.65082622 245.92548561 C120.55460784 245.91531226 115.45841748 245.92476313 110.36219788 245.93103027 C101.80741143 245.93829343 93.25276344 245.92875329 84.69799805 245.90966797 C74.82479958 245.88789486 64.9519315 245.8949592 55.07874101 245.91697359 C46.58158932 245.93515727 38.08453676 245.93767162 29.58737189 245.92721891 C24.52116933 245.92100119 19.4551218 245.92010098 14.38892937 245.93336487 C9.62563382 245.94496627 4.86276212 245.93681961 0.0995121 245.91378784 C-1.64268924 245.9085239 -3.3849266 245.90997462 -5.12711334 245.9188385 C-18.45718352 245.98037823 -28.87890074 244.37967867 -39.03320312 234.95068359 C-46.72181369 226.65507746 -50.55403856 219.30588087 -50.56210327 207.96459961 C-50.56648553 207.21419151 -50.57086778 206.46378342 -50.57538283 205.69063568 C-50.58874415 203.17445116 -50.59494376 200.65830164 -50.60107422 198.14208984 C-50.60897748 196.33833153 -50.61724657 194.53457479 -50.62585449 192.7308197 C-50.65205535 186.80412298 -50.66738326 180.87741928 -50.68164062 174.95068359 C-50.68700168 172.90787756 -50.69237919 170.86507157 -50.69777298 168.82226562 C-50.71940157 160.32097994 -50.73813592 151.81969613 -50.74939537 143.31838989 C-50.76561849 131.15058797 -50.79875686 118.98310618 -50.85579622 106.81542492 C-50.89456401 98.25217026 -50.91403633 89.68900098 -50.91931593 81.1256609 C-50.92296087 76.0156046 -50.9348904 70.90588991 -50.96741867 65.79592896 C-50.9976186 60.98265191 -51.00376878 56.16992101 -50.99203491 51.35656929 C-50.99181515 49.59744792 -51.00003875 47.83830034 -51.01768875 46.0792675 C-51.15204542 31.90863545 -49.05237369 21.09277026 -38.79492188 10.51318359 C-27.56818299 0.51752737 -14.29753723 -0.0560778 0 0 Z " fill="#69A7FC" transform="translate(50.408203125,266.61181640625)"/>
<path d="M0 0 C0.75198669 -0.00554901 1.50397339 -0.01109802 2.27874756 -0.01681519 C4.75932046 -0.02860208 7.23806114 -0.00433247 9.71850586 0.02148438 C11.4538108 0.02319708 13.18911833 0.02312817 14.92442322 0.0213623 C18.56363662 0.02301546 22.20223404 0.04169981 25.84130859 0.07324219 C30.47555543 0.11271273 35.1089882 0.11731131 39.74337101 0.10977936 C43.33053362 0.10668723 46.91751791 0.11891261 50.50463676 0.13591003 C52.21122554 0.14288067 53.91783454 0.14607188 55.62443733 0.1452179 C72.00197951 0.15766085 87.1893174 2.24441388 99.75366211 13.87695312 C110.08439801 24.98124654 114.2440467 37.54583418 113.96777344 52.55371094 C113.93335901 54.61467154 113.94721478 56.67133837 113.96655273 58.73242188 C113.95663413 66.54875008 112.96054952 73.36663112 110.32373047 80.74804688 C108.46909336 86.32212435 108.46909336 86.32212435 109.11303711 91.99414062 C109.6737793 93.07501953 109.6737793 93.07501953 110.24584961 94.17773438 C114.12860785 101.793914 113.55419504 109.48131389 113.55834961 117.86523438 C113.5705957 119.15042969 113.5828418 120.435625 113.59545898 121.75976562 C113.61794547 136.37598229 110.47035311 149.46174175 100.30834961 160.55273438 C91.00200275 169.10882685 78.57455769 173.9104253 66.02050781 173.92163086 C65.21636444 173.92995438 64.41222107 173.93827789 63.58370972 173.94685364 C60.94629988 173.97079848 58.30913758 173.97970316 55.67163086 173.98632812 C53.8303368 173.99530074 51.98904347 174.0044227 50.14775085 174.01368713 C46.29884064 174.03013346 42.45001704 174.03787026 38.60107422 174.04077148 C33.66778863 174.04617498 28.73531419 174.08395412 23.80225849 174.12951565 C20.00444034 174.15922942 16.20681981 174.16649367 12.40889549 174.16749763 C10.58958374 174.17170517 8.77027169 174.18416084 6.9510746 174.20501518 C4.41110443 174.23183482 1.87304665 174.22713538 -0.66699219 174.21459961 C-1.79309151 174.23685104 -1.79309151 174.23685104 -2.94194031 174.259552 C-6.4962661 174.20952995 -8.22333424 174.00703443 -10.82104111 171.49904728 C-13.01592844 167.99834935 -13.13412231 165.97150329 -13.14381409 161.85949707 C-13.15075962 161.19313374 -13.15770514 160.52677041 -13.16486114 159.84021425 C-13.18311097 157.61448667 -13.17287353 155.38982745 -13.16259766 153.1640625 C-13.16965716 151.56553857 -13.17840231 149.96702133 -13.18870544 148.36851501 C-13.2112045 144.03172726 -13.20825879 139.69530435 -13.19938397 135.35848045 C-13.1942739 131.73755239 -13.2015667 128.11669288 -13.20885605 124.49577188 C-13.2258563 115.95431431 -13.2222875 107.41303539 -13.20556641 98.87158203 C-13.18863852 90.05943255 -13.20448836 81.24777819 -13.23678929 72.43568277 C-13.26347568 64.86865018 -13.27076397 57.3017718 -13.26227421 49.73469687 C-13.25734296 45.21568404 -13.25957134 40.69696924 -13.28006172 36.17799377 C-13.29840446 31.92932574 -13.29247795 27.68137077 -13.26786232 23.43274117 C-13.26285017 21.87388529 -13.26635477 20.3149752 -13.27901077 18.75616264 C-13.29492999 16.62694476 -13.28000685 14.50007848 -13.25733948 12.37097168 C-13.25675317 11.18005669 -13.25616686 9.98914169 -13.25556278 8.76213837 C-11.79866033 1.44310668 -6.71708984 -0.12693121 0 0 Z " fill="#FBF1F1" transform="translate(71.629150390625,302.384765625)"/>
<path d="M0 0 C1.08908346 -0.00551503 1.08908346 -0.00551503 2.20016861 -0.01114148 C4.62800051 -0.02213587 7.05578955 -0.02601497 9.48364258 -0.02983093 C11.22681309 -0.03609894 12.96998228 -0.04274604 14.71315002 -0.04974365 C20.43481522 -0.07075171 26.15648058 -0.08114512 31.87817383 -0.09111023 C33.85192885 -0.09515943 35.82568374 -0.0992764 37.79943848 -0.10346031 C47.07658315 -0.12250727 56.3537199 -0.13673761 65.63088036 -0.14507228 C76.31830962 -0.15483384 87.00553118 -0.1811272 97.69288731 -0.22157317 C105.96658529 -0.25180333 114.24022398 -0.26654781 122.5139761 -0.26985329 C127.44905765 -0.27219649 132.3839172 -0.28106107 137.31893921 -0.30631447 C141.96802777 -0.32972029 146.61675012 -0.33377851 151.26588249 -0.32355309 C152.96329916 -0.32306059 154.66073463 -0.32929554 156.35809517 -0.34310913 C170.51805357 -0.45180932 182.96747522 0.92424334 193.69067383 11.14717102 C194.5356543 11.93221008 194.5356543 11.93221008 195.39770508 12.73310852 C205.12930497 22.83426283 205.41737038 35.20633059 205.32177734 48.33320618 C205.32692495 50.14139506 205.33421254 51.9495789 205.34346008 53.75775146 C205.36187248 58.63584738 205.34910113 63.51339218 205.32936978 68.39146471 C205.31290264 73.513032 205.32180712 78.6345666 205.32688904 83.75614929 C205.33140019 92.35207353 205.31559888 100.94777945 205.28759766 109.5436554 C205.25552987 119.46403074 205.25557266 129.38401297 205.27281243 139.3044163 C205.2887053 148.87365725 205.2819275 158.44275487 205.26487541 168.01198959 C205.25802531 172.07316812 205.25901627 176.13423105 205.26642036 180.19540787 C205.27411188 184.9808946 205.26186389 189.76593668 205.23457146 194.55134773 C205.2277173 196.30160643 205.22755758 198.05190689 205.23478699 199.80216408 C205.28696576 214.08633377 203.06289202 224.42953815 193.06567383 235.20967102 C185.64672968 242.46189732 177.47038021 245.29703349 167.29832458 245.29434204 C166.17777942 245.29985707 166.17777942 245.29985707 165.03459698 245.30548352 C162.52989361 245.31650168 160.02523177 245.32036106 157.52050781 245.32417297 C155.72497934 245.33043915 153.92945216 245.33708609 152.13392639 245.34408569 C146.23488262 245.36511423 140.33583862 245.37548855 134.43676758 245.38545227 C132.4038447 245.3895006 130.37092195 245.39361755 128.33799934 245.39780235 C118.78427647 245.4168532 109.2305613 245.43108315 99.67682308 245.43941432 C88.66109367 245.44917969 77.64556557 245.47548141 66.62990707 245.51591522 C58.10827958 245.54611711 49.58670964 245.56088716 41.06502968 245.56419533 C35.9790933 245.56654161 30.89337201 245.57544681 25.80749321 245.60065651 C21.01807452 245.62401284 16.22901138 245.62814014 11.4395504 245.61789513 C9.68808049 245.61740145 7.93659263 245.62367185 6.18517685 245.63745117 C-7.75532893 245.74093235 -18.83524583 244.10645724 -29.30932617 234.14717102 C-39.63742298 223.69636415 -40.90697341 210.86009546 -40.82652283 196.88188362 C-40.8214119 196.0623313 -40.81630096 195.24277897 -40.81103516 194.39839172 C-40.81482651 192.6491706 -40.82033324 190.8999525 -40.82740784 189.15074158 C-40.84127019 184.43805048 -40.83025942 179.72572824 -40.81369662 175.01305795 C-40.79975982 170.06233254 -40.80631572 165.11162667 -40.80982971 160.16088867 C-40.81252429 151.85344048 -40.79911857 143.54613741 -40.77587891 135.23872375 C-40.74924766 125.65295061 -40.74753327 116.06741953 -40.75926727 106.48162204 C-40.77006743 97.23115735 -40.76384211 87.98077968 -40.74971199 78.73032188 C-40.74397424 74.80592463 -40.74401733 70.88159151 -40.74877739 66.95719337 C-40.75356992 62.33345526 -40.74335172 57.70998037 -40.72182274 53.08629227 C-40.71628658 51.39569295 -40.71576022 49.70506818 -40.7207756 48.01446724 C-40.75624893 34.33601047 -39.30797361 23.06944236 -30.30932617 12.14717102 C-21.09990665 3.93995304 -12.31239096 0.04052076 0 0 Z M-21.30932617 24.14717102 C-26.63578544 31.97479913 -25.86666691 40.36001365 -25.81103516 49.45185852 C-25.81482174 51.21343924 -25.82032458 52.97501698 -25.82740784 54.73658752 C-25.84133544 59.50522126 -25.83021161 64.27349309 -25.81369662 69.04210663 C-25.79981428 74.04050966 -25.80630983 79.03889237 -25.80982971 84.03730774 C-25.81252931 92.43010773 -25.7990777 100.82276449 -25.77587891 109.2155304 C-25.74927078 118.90859727 -25.74752303 128.60142473 -25.75926727 138.29451561 C-25.77005925 147.63200813 -25.76384682 156.96941434 -25.74971199 166.30690002 C-25.74396452 170.27481637 -25.74402512 174.2426693 -25.74877739 178.21058655 C-25.75356171 182.88596016 -25.74338533 187.56107278 -25.72182274 192.23639679 C-25.71627449 193.94879527 -25.71577148 195.66121893 -25.7207756 197.37361908 C-25.7267653 199.71785632 -25.71415384 202.06130536 -25.69700623 204.4054718 C-25.69457633 205.71508881 -25.69214643 207.02470581 -25.68964291 208.37400818 C-25.10537401 214.17060211 -23.46175918 219.72305765 -19.18432617 223.89717102 C-18.66612305 224.42826477 -18.14791992 224.95935852 -17.61401367 225.50654602 C-8.66027355 231.88039492 0.24292925 231.72051337 10.81762695 231.66474915 C12.54817797 231.67017598 14.27872436 231.67730179 16.00926208 231.68598938 C20.68905242 231.70415892 25.36848834 231.69718162 30.04828453 231.68447304 C34.9568003 231.67431227 39.86528669 231.68374724 44.77380371 231.6900177 C53.01519186 231.69728516 61.25643641 231.68773008 69.49780273 231.6686554 C79.01198412 231.64688841 88.52582258 231.65394041 98.03999567 231.67596102 C106.22371931 231.69414072 114.40734001 231.69666078 122.59107733 231.68620634 C127.47227947 231.67998554 132.35332067 231.67909679 137.23451233 231.69235229 C141.82460056 231.70394764 146.4142487 231.69581805 151.00428963 231.67277527 C152.6840193 231.6675078 154.36378632 231.66896818 156.0435009 231.67782593 C168.40186143 231.79526236 168.40186143 231.79526236 179.69067383 227.14717102 C180.25681145 226.78915657 180.82294907 226.43114212 181.40624237 226.06227875 C186.55395053 222.30655428 188.73810885 217.00486595 190.69067383 211.14717102 C190.79373768 208.81118843 190.83446984 206.47232748 190.84457397 204.13409424 C190.84895623 203.41579785 190.85333848 202.69750147 190.85785353 201.95743853 C190.87123658 199.54403616 190.87741935 197.13067031 190.88354492 194.71723938 C190.89144646 192.98920019 190.89971544 191.26116264 190.9083252 189.53312683 C190.93454564 183.85110551 190.94985574 178.16907682 190.96411133 172.48701477 C190.96947154 170.5299129 190.97484905 168.57281108 190.98024368 166.6157093 C191.00187501 158.47217796 191.02061003 150.32864859 191.03186607 142.18509579 C191.04809322 130.52217388 191.08123818 118.85958576 191.13826692 107.19678968 C191.17701127 98.99281912 191.19650426 90.78893766 191.20178664 82.58487803 C191.20543475 77.68725165 191.21739808 72.78998128 191.24988937 67.89245415 C191.28004807 63.28027973 191.28625412 58.66867528 191.27450562 54.05642319 C191.27428551 52.36902678 191.28253796 50.68160334 191.30015945 48.99429893 C191.40157148 38.71955192 191.01117801 30.01378136 183.75935936 22.01762295 C175.42464389 13.7320977 165.31018459 13.7064365 154.27562714 13.73572159 C153.47157692 13.7381625 152.6675267 13.74060341 151.83911133 13.74311829 C150.13811801 13.73740879 148.43712853 13.7304423 146.73614502 13.72232056 C142.13699113 13.70443978 137.53802856 13.70554772 132.9388504 13.71126294 C129.09194514 13.7143616 125.24507627 13.70825494 121.39817619 13.7022242 C112.32051417 13.68819779 103.24294629 13.68972506 94.1652832 13.7011261 C84.81470546 13.7126107 75.46441442 13.6985216 66.11387444 13.67172962 C58.07028629 13.64954931 50.026788 13.64294035 41.98317146 13.64880604 C37.1857936 13.6521706 32.38859957 13.64979361 27.59124756 13.63255501 C23.07996945 13.6170503 18.56911527 13.62108036 14.0578537 13.63986015 C12.40714344 13.64353602 10.75640152 13.64046689 9.10572052 13.62997437 C-2.53513361 13.56165617 -13.38406059 14.50572871 -21.30932617 24.14717102 Z " fill="#010100" transform="translate(307.309326171875,266.8528289794922)"/>
<path d="M0 0 C1.12561214 -0.00657338 1.12561214 -0.00657338 2.27396393 -0.01327956 C4.79014845 -0.02664088 7.30629797 -0.03284049 9.82250977 -0.03897095 C11.62626808 -0.04687421 13.43002482 -0.0551433 15.23377991 -0.06375122 C21.16047663 -0.08995208 27.08718033 -0.10527998 33.01391602 -0.11953735 C35.05672205 -0.1248984 37.09952804 -0.13027592 39.14233398 -0.13566971 C47.64361967 -0.1572983 56.14490348 -0.17603265 64.64620972 -0.1872921 C76.81401164 -0.20351522 88.98149343 -0.23665359 101.14917469 -0.29369295 C109.71242935 -0.33246074 118.27559863 -0.35193306 126.83893871 -0.35721266 C131.94899501 -0.3608576 137.0587097 -0.37278713 142.16867065 -0.4053154 C146.9819477 -0.43551533 151.7946786 -0.44166551 156.60803032 -0.42993164 C158.36715169 -0.42971188 160.12629927 -0.43793548 161.88533211 -0.45558548 C176.05596416 -0.58994215 186.87182935 1.50972958 197.45141602 11.7671814 C207.43556773 22.98099885 208.02280022 36.24735768 207.98046875 50.53036499 C207.98617944 52.27589859 207.99314639 54.02142846 208.00126648 55.76695251 C208.01913665 60.48401211 208.01804101 65.20088506 208.01232409 69.91796827 C208.00922308 73.86653901 208.01533488 77.81507436 208.02136284 81.76364005 C208.03538654 91.08451218 208.03386498 100.40529261 208.02246094 109.72616577 C208.01098403 119.31811789 208.02505317 128.90979026 208.05185741 138.50170553 C208.07406281 146.75937114 208.08064084 155.01694926 208.074781 163.27464259 C208.07142153 168.19673721 208.07375898 173.11865259 208.09103203 178.04072189 C208.10657626 182.67185173 208.10246325 187.3025694 208.08372688 191.9336834 C208.08006149 193.62506091 208.08308907 195.31646948 208.09361267 197.00781822 C208.17415037 211.03157877 206.3293277 223.35269085 196.57641602 234.15390015 C185.00023621 244.60656857 171.81397125 245.74814801 156.94116211 245.65560913 C155.19208849 245.65939956 153.44301788 245.66490552 151.69395447 245.67198181 C146.97707237 245.68585733 142.26055826 245.67482351 137.54369688 245.6582706 C132.59029626 245.64434397 127.63691537 245.65088864 122.6835022 245.65440369 C114.37007773 245.65709931 106.05679818 245.64368433 97.7434082 245.62045288 C88.15027148 245.59382976 78.55737666 245.59210406 68.96421564 245.60384125 C59.70894761 245.61464178 50.45376654 245.60841523 41.1985054 245.59428596 C37.27131708 245.58854766 33.34419284 245.58859177 29.41700363 245.59335136 C24.78917499 245.59814409 20.16160933 245.58792491 15.53383064 245.56639671 C13.84161961 245.56086048 12.14938314 245.56033426 10.45717049 245.56534958 C-3.73914536 245.60213001 -15.62482663 243.92022888 -26.65405273 234.18515015 C-37.23821166 223.22369475 -38.15951781 211.36320716 -38.0546875 196.96786499 C-38.05983511 195.15967611 -38.0671227 193.35149226 -38.07637024 191.5433197 C-38.09478264 186.66522378 -38.08201129 181.78767898 -38.06227994 176.90960646 C-38.0458128 171.78803916 -38.05471728 166.66650456 -38.05979919 161.54492188 C-38.06431035 152.94899764 -38.04850903 144.35329171 -38.02050781 135.75741577 C-37.98844002 125.83704042 -37.98848282 115.9170582 -38.00572258 105.99665487 C-38.02161545 96.42741392 -38.01483766 86.8583163 -37.99778557 77.28908157 C-37.99093547 73.22790305 -37.99192643 69.16684012 -37.99933052 65.1056633 C-38.00702203 60.32017656 -37.99477404 55.53513449 -37.96748161 50.74972343 C-37.96062746 48.99946474 -37.96046774 47.24916428 -37.96769714 45.49890709 C-38.01646813 32.14763469 -36.43117592 21.70053762 -26.98608398 11.52890015 C-18.69047785 3.84028958 -11.34128126 0.00806471 0 0 Z M-19.16967773 24.11483765 C-22.60615164 29.70312231 -23.79905692 34.11849279 -23.81799316 40.68595886 C-23.82408427 41.4117565 -23.83017537 42.13755413 -23.83645105 42.88534564 C-23.85300643 45.30030279 -23.84831609 47.71472835 -23.84350586 50.12973022 C-23.85085061 51.86821537 -23.85943802 53.60669565 -23.86917114 55.34516907 C-23.89135483 60.05606289 -23.89431934 64.76678162 -23.89242363 69.4777205 C-23.89230377 73.41639015 -23.90087452 77.35502292 -23.90920115 81.29368228 C-23.92842448 90.58996817 -23.93132317 99.88616428 -23.92456055 109.1824646 C-23.91792267 118.75796985 -23.94077639 128.33308962 -23.97787428 137.90851671 C-24.00861143 146.14231416 -24.01992689 154.37598788 -24.01603746 162.60984153 C-24.01397386 167.52190656 -24.01938887 172.43367167 -24.04393005 177.34568214 C-24.06626064 181.96780191 -24.06426712 186.58929695 -24.04400253 191.21142006 C-24.04060346 192.90202829 -24.04563383 194.5926791 -24.05998611 196.28322983 C-24.1410648 206.54647113 -23.77711286 215.33901704 -16.46309662 223.28333759 C-7.52700758 232.00736445 2.58475506 231.59774217 14.2668457 231.57382202 C15.96282508 231.58116908 17.65879947 231.58975716 19.35476685 231.5994873 C23.94590605 231.62164813 28.53686547 231.62463661 33.1280508 231.62273979 C36.96965466 231.62261981 40.81122082 231.63119556 44.65281415 231.63951731 C53.72242594 231.65873289 62.7919457 231.66164237 71.86157227 231.65487671 C81.19564686 231.6482414 90.52932574 231.67108399 99.86332011 231.70819044 C107.89589731 231.73895615 115.92834768 231.75023991 123.96098256 231.74635363 C128.75013866 231.74429275 133.53898692 231.74966235 138.32808685 231.77424622 C142.83614314 231.79662389 147.34355966 231.79454468 151.85161972 231.7743187 C153.49784983 231.77092773 155.14412393 231.77591443 156.79029465 231.79030228 C167.07184575 231.87390139 177.4121746 231.49860202 185.60099411 224.39849091 C191.04147847 218.66909843 192.95062219 212.34135126 192.95736694 204.57041931 C192.9643869 203.47348083 192.9643869 203.47348083 192.97154868 202.35438198 C192.98344837 199.92091131 192.97406146 197.48800907 192.96459961 195.05453491 C192.96866759 193.30295485 192.97401074 191.55137735 192.98052979 189.79980469 C192.99418325 185.0539014 192.98891259 180.3081942 192.97939253 175.56228757 C192.97178454 170.589234 192.97884482 165.61619695 192.98355103 160.6431427 C192.98900576 152.29147333 192.98182488 143.93988359 192.9675293 135.58822632 C192.95120869 125.94233423 192.95648816 116.29663244 192.97300851 106.65074497 C192.98663778 98.36008503 192.98853583 90.06948226 192.98069251 81.77881473 C192.97602323 76.83112943 192.97537052 71.88353347 192.98530197 66.93585396 C192.99399012 62.28266782 192.98791598 57.62972614 192.9706192 52.97656631 C192.966664 51.27222664 192.96777181 49.56786627 192.9744072 47.86353493 C192.98265147 45.53020364 192.97226721 43.19764707 192.95736694 40.86436462 C192.95623587 39.56082314 192.95510479 38.25728167 192.95393944 36.91423893 C192.37248438 31.12263004 190.72438027 25.57365271 186.45141602 21.40390015 C185.93321289 20.8728064 185.41500977 20.34171265 184.88110352 19.79452515 C175.91020871 13.40846444 166.96921535 13.57509899 156.37353516 13.62045288 C154.63475312 13.61338692 152.89597723 13.60463907 151.1572113 13.59434509 C146.45464192 13.57191728 141.75241016 13.57477532 137.04980779 13.58366656 C133.11600112 13.58879072 129.1822571 13.58147232 125.2484569 13.57419449 C115.96457269 13.55721647 106.68085293 13.56074019 97.39697266 13.57748413 C87.83618037 13.59440509 78.27584468 13.57856647 68.71510226 13.54626125 C60.48974525 13.51952661 52.26453004 13.51229976 44.03913397 13.52077633 C39.13382069 13.52569403 34.22878205 13.52355264 29.32350349 13.50298882 C24.70954239 13.48457064 20.09623574 13.49066499 15.48230934 13.51518822 C13.79493279 13.52017663 12.10750583 13.51675781 10.42016983 13.50403976 C-1.4179076 13.4219114 -11.18070703 14.43268211 -19.16967773 24.11483765 Z " fill="#020000" transform="translate(37.423583984375,-0.153900146484375)"/>
<path d="M0 0 C1.80818888 -0.00514761 3.61637273 -0.0124352 5.42454529 -0.02168274 C10.30264121 -0.04009514 15.18018601 -0.02732379 20.05825853 -0.00759244 C25.17982583 0.0088747 30.30136043 -0.00002978 35.42294312 -0.00511169 C44.01886735 -0.00962285 52.61457328 0.00617847 61.21044922 0.03417969 C71.13082457 0.06624748 81.05080679 0.06620468 90.97121012 0.04896492 C100.54045107 0.03307205 110.10954869 0.03984984 119.67878342 0.05690193 C123.73996194 0.06375203 127.80102487 0.06276107 131.86220169 0.05535698 C136.64768843 0.04766547 141.4327305 0.05991346 146.21814156 0.08720589 C147.96840025 0.09406004 149.71870071 0.09421976 151.4689579 0.08699036 C164.8202303 0.03821937 175.26732737 1.62351158 185.43896484 11.06860352 C193.11466181 19.35027656 196.96413251 26.69792012 196.96113586 38.02345276 C196.96481255 38.77048287 196.96848924 39.51751298 196.97227734 40.28718036 C196.98329551 42.79188373 196.98715488 45.29654558 196.9909668 47.80126953 C196.99723297 49.59679801 197.00387991 51.39232519 197.01087952 53.18785095 C197.03190805 59.08689473 197.04228238 64.98593872 197.05224609 70.88500977 C197.05629443 72.91793265 197.06041137 74.95085539 197.06459618 76.983778 C197.08364703 86.53750088 197.09787698 96.09121604 197.10620815 105.64495426 C197.11597351 116.66068367 197.14227523 127.67621177 197.18270904 138.69187027 C197.21291094 147.21349777 197.22768098 155.7350677 197.23098916 164.25674766 C197.23333544 169.34268404 197.24224064 174.42840533 197.26745033 179.51428413 C197.29080667 184.30370282 197.29493396 189.09276597 197.28468895 193.88222694 C197.28419528 195.63369686 197.29046567 197.38518472 197.304245 199.13660049 C197.40772617 213.07710627 195.77325106 224.15702318 185.81396484 234.63110352 C174.65534052 245.65870681 160.87252644 246.22663366 146.09692383 246.14868164 C144.35094624 246.15411384 142.60497325 246.16124261 140.85900879 246.16992188 C136.15446128 246.18802638 131.45026794 246.18114174 126.7457149 246.16840553 C121.80125715 246.15821226 116.85682784 246.16768851 111.91236877 246.1739502 C103.61331794 246.18120761 95.31440996 246.1716884 87.01538086 246.15258789 C77.44550875 246.13081567 67.87597754 246.13788079 58.30611366 246.15989351 C50.06111674 246.17809343 41.81622194 246.18058366 33.5712114 246.17013884 C28.65923326 246.16393001 23.74741493 246.16299606 18.83544731 246.17628479 C14.21657108 246.18791004 9.59813098 246.17969672 4.97930145 246.15670776 C3.29276564 246.15145642 1.60619259 246.15287252 -0.08032799 246.16175842 C-14.05899521 246.22857235 -26.43960902 244.39213072 -37.18603516 234.63110352 C-41.91893877 229.15700934 -45.04885991 223.51755709 -47.18603516 216.63110352 C-47.37120288 216.04461249 -47.5563706 215.45812147 -47.74714947 214.85385799 C-48.36982163 211.70030943 -48.32263654 208.6559383 -48.33320618 205.44203186 C-48.33688286 204.71683064 -48.34055955 203.99162943 -48.34434766 203.24445242 C-48.35536357 200.81351447 -48.35922485 198.3826193 -48.36303711 195.95166016 C-48.36930358 194.20863714 -48.37595054 192.46561545 -48.38294983 190.72259521 C-48.40397912 184.99549284 -48.4143544 179.26839024 -48.42431641 173.54125977 C-48.42836504 171.56657841 -48.432482 169.59189719 -48.43666649 167.61721611 C-48.45571939 158.33472865 -48.46994756 149.05224913 -48.47827846 139.76974589 C-48.48803738 129.07381653 -48.51432132 118.37809487 -48.55477935 107.68223864 C-48.5850103 99.40431456 -48.59975413 91.12644976 -48.60305947 82.84847158 C-48.60540291 77.91002174 -48.61427043 72.97179374 -48.63952065 68.0334034 C-48.66292731 63.38022431 -48.66698434 58.7274111 -48.65675926 54.07418823 C-48.65626676 52.37515986 -48.66250194 50.67611271 -48.67631531 48.97714043 C-48.78494718 34.81229024 -47.41293149 22.35846499 -37.18603516 11.63110352 C-36.66267578 11.0677832 -36.13931641 10.50446289 -35.60009766 9.92407227 C-25.49894334 0.19247238 -13.12687559 -0.09559303 0 0 Z M-28.06103516 23.44360352 C-28.59470703 24.04817383 -29.12837891 24.65274414 -29.67822266 25.27563477 C-35.11820771 33.77384976 -34.61979986 42.51279132 -34.59008789 52.24560547 C-34.59579612 53.93335419 -34.60276213 55.62109906 -34.61088562 57.30883789 C-34.62878457 61.87719483 -34.6276545 66.44535934 -34.62194324 71.01374078 C-34.61884588 74.83555416 -34.62495009 78.65733088 -34.63098198 82.47913903 C-34.64501562 91.50077233 -34.6434763 100.52231093 -34.63208008 109.54394531 C-34.62060683 118.83141115 -34.63466383 128.11858795 -34.66147655 137.40601569 C-34.68367721 145.39696157 -34.69026091 153.38781701 -34.68440014 161.37879151 C-34.68103897 166.14383153 -34.68338928 170.90868643 -34.70065117 175.67370033 C-34.71618739 180.15788642 -34.7120912 184.64164667 -34.69334602 189.12581635 C-34.68967818 190.76439778 -34.69271551 192.40301124 -34.70323181 194.04156303 C-34.76447352 204.37910413 -34.33645958 214.31167671 -27.99853516 223.00610352 C-21.13237743 229.41451739 -14.46439244 231.74683602 -5.21128845 231.77827454 C-4.1581219 231.78378957 -4.1581219 231.78378957 -3.08367926 231.78941602 C-0.73099032 231.80042889 1.62165441 231.80429265 3.97436523 231.80810547 C5.66152079 231.81437206 7.34867496 231.82101904 9.03582764 231.82801819 C14.57774905 231.84904238 20.11967067 231.85942088 25.66162109 231.86938477 C27.57195996 231.87343331 29.48229868 231.87755026 31.39263725 231.88173485 C40.37077699 231.90078503 49.34890852 231.91501491 58.32706457 231.92334682 C68.67663387 231.93311085 79.02598881 231.95940933 89.37548262 231.99984771 C97.38331405 232.03005802 105.39108421 232.04482046 113.3989715 232.04812783 C118.17751133 232.05047322 122.95582213 232.05936665 127.73430061 232.084589 C132.23481288 232.10796007 136.7349468 232.11206684 141.23550415 232.10182762 C142.88054606 232.1013343 144.52560717 232.1075943 146.17059135 232.12138367 C156.85105158 232.20585017 167.40288768 232.02658485 175.75146484 224.44360352 C183.61170136 215.46323986 183.39590992 205.75839329 183.34741211 194.42822266 C183.35447807 192.68944062 183.36322593 190.95066473 183.3735199 189.2118988 C183.39594771 184.50932942 183.39308967 179.80709766 183.38419843 175.10449529 C183.37907427 171.17068862 183.38639267 167.2369446 183.3936705 163.3031444 C183.41064852 154.01926019 183.4071248 144.73554043 183.39038086 135.45166016 C183.3734599 125.89086787 183.38929852 116.33053218 183.42160374 106.76978976 C183.44833838 98.54443275 183.45556523 90.31921754 183.44708866 82.09382147 C183.44217096 77.18850819 183.44431235 72.28346955 183.46487617 67.37819099 C183.48329435 62.76422989 183.4772 58.15092324 183.45267677 53.53699684 C183.44768836 51.84962029 183.45110718 50.16219333 183.46382523 48.47485733 C183.53364993 38.41024292 183.22977438 29.5776094 176.08791447 21.73591709 C170.22364157 16.03479203 163.15290553 14.25974852 155.15492249 14.23669434 C154.42756486 14.23060323 153.70020723 14.22451213 152.95080847 14.21823645 C150.53662264 14.2017135 148.12297046 14.20636666 145.70874023 14.21118164 C143.96848508 14.20383514 142.22823479 14.19524722 140.48799133 14.18551636 C135.77722381 14.16335468 131.06663148 14.16036693 126.35581899 14.16226387 C122.41700492 14.1623838 118.47822767 14.15381065 114.53942388 14.14548635 C105.24460056 14.12627215 95.94986704 14.12336151 86.6550293 14.13012695 C77.07891541 14.13676902 67.50318658 14.11389214 57.92715079 14.07681322 C49.69249955 14.04608985 41.45797202 14.03475898 33.22326463 14.03865004 C28.31068749 14.04071451 23.39841018 14.03528463 18.48588753 14.01075745 C13.86539895 13.98844875 9.24553564 13.99040228 4.62504387 14.01068497 C2.93401475 14.01408754 1.2429432 14.00903844 -0.44802856 13.99470139 C-11.35265819 13.90865815 -20.5342187 14.54997711 -28.06103516 23.44360352 Z " fill="#000000" transform="translate(315.18603515625,-0.631103515625)"/>
<path d="M0 0 C1.74877753 -0.00407106 3.49755249 -0.00941592 5.24632263 -0.01593018 C9.97152261 -0.02954608 14.69652493 -0.02432888 19.42172813 -0.01479292 C24.38048182 -0.00716655 29.33921924 -0.01425017 34.29797363 -0.01895142 C42.62332173 -0.02440032 50.94858984 -0.0172401 59.27392578 -0.00292969 C68.88178242 0.01339514 78.48944804 0.00810602 88.09730005 -0.0084089 C96.36512203 -0.02204846 104.6328867 -0.02393137 112.9007163 -0.0160929 C117.83053561 -0.01142995 122.76026529 -0.01075348 127.69007874 -0.02070236 C132.32607471 -0.02940576 136.9618258 -0.02328881 141.59779549 -0.00601959 C143.29323483 -0.00207271 144.988695 -0.00315777 146.6841259 -0.00980759 C161.38360865 -0.06212061 171.89684389 1.90647987 183.27929688 11.70068359 C192.14148259 21.99998051 195.05418273 31.60017004 194.99584961 45.10839844 C195.00271286 46.23484772 195.00957611 47.361297 195.01664734 48.5218811 C195.0348273 52.21442554 195.03109276 55.90654189 195.02539062 59.59912109 C195.02995423 62.17599627 195.03526034 64.75287023 195.04127502 67.32974243 C195.05018699 72.71435097 195.04803756 78.0987966 195.0378418 83.48339844 C195.02632381 89.70369712 195.0405104 95.92356649 195.06723827 102.14380872 C195.09205265 108.14424236 195.09457757 114.14445466 195.08812141 120.14494705 C195.08796786 122.69270164 195.09404037 125.24046439 195.10641289 127.78818893 C195.12124452 131.34056711 195.11070513 134.89198831 195.09350586 138.44433594 C195.10800781 140.02622711 195.10800781 140.02622711 195.12280273 141.64007568 C195.05095241 148.7058359 195.05095241 148.7058359 192.78309631 152.07608032 C190.59179688 153.38818359 190.59179688 153.38818359 187.02929688 153.32568359 C183.62097734 152.3961419 182.64016099 152.09370418 180.59179688 149.38818359 C180.21541595 147.27662373 180.21541595 147.27662373 180.21325684 144.79133606 C180.20505417 143.84797394 180.1968515 142.90461182 180.18840027 141.93266296 C180.19454849 140.8993837 180.20069672 139.86610443 180.20703125 138.80151367 C180.20165848 137.71177246 180.19628571 136.62203125 180.19075012 135.49926758 C180.18095459 133.12898853 180.1780333 130.75867354 180.18110657 128.38837624 C180.18557437 124.63461267 180.17161154 120.88132314 180.15270996 117.12760925 C180.11586278 109.15197427 180.10206527 101.17638381 180.09179688 93.20068359 C180.07990172 83.97601031 180.05812896 74.75153599 180.01179504 65.52695274 C179.99823258 61.83329111 180.0023955 58.13992003 180.00720215 54.44624329 C179.9978582 52.17143384 179.98768854 49.8966276 179.9765625 47.62182617 C179.98271072 46.59866806 179.98885895 45.57550995 179.99519348 44.52134705 C179.92339074 36.14012953 178.08481242 28.93447076 172.61649895 22.34860897 C164.22140069 14.22002359 152.28864726 14.67270267 141.41552734 14.75708008 C139.71571102 14.75193151 138.01590005 14.74464319 136.31610107 14.73539734 C131.73343771 14.71699723 127.15136158 14.72974818 122.5687232 14.74948764 C117.75545501 14.76596483 112.94222137 14.75704894 108.12893677 14.75196838 C100.05086976 14.74745839 91.97303513 14.76325139 83.89501953 14.79125977 C74.57448367 14.82332839 65.25436623 14.8232839 55.93380058 14.806045 C46.94013944 14.79014807 37.94663075 14.79693242 28.95297623 14.81398201 C25.13741081 14.82082915 21.32196846 14.81984424 17.50640488 14.81243706 C13.00982024 14.8047413 8.51370846 14.81700701 4.01720428 14.84428596 C2.37337522 14.85113569 0.7295017 14.85130466 -0.91432571 14.84407043 C-10.67612603 14.80607978 -19.83993096 14.91545766 -27.81054688 21.31787109 C-28.31714844 21.95982422 -28.82375 22.60177734 -29.34570312 23.26318359 C-29.87035156 23.89998047 -30.395 24.53677734 -30.93554688 25.19287109 C-34.47668654 30.47170529 -35.78389947 34.41802323 -35.79588318 40.80671692 C-35.80126872 41.5323657 -35.80665425 42.25801447 -35.81220299 43.00565261 C-35.82645802 45.42606237 -35.81938509 47.84592333 -35.81225586 50.26635742 C-35.81796082 52.00631651 -35.82492557 53.74627186 -35.83305359 55.48622131 C-35.85098877 60.20538209 -35.84981562 64.92435696 -35.8441112 69.64354157 C-35.84101907 73.58722383 -35.84711228 77.53087039 -35.85314995 81.47454756 C-35.86719552 90.78180869 -35.86563436 100.08897804 -35.85424805 109.39624023 C-35.84277387 118.98703256 -35.85683065 128.57754502 -35.88364452 138.16830045 C-35.90582486 146.41140134 -35.91243343 154.65441453 -35.90656811 162.89754313 C-35.90320206 167.81680704 -35.9055899 172.73589167 -35.92281914 177.65513039 C-35.93832277 182.28373597 -35.93429488 186.91192834 -35.91551399 191.54051781 C-35.91183719 193.23476459 -35.91491 194.9290422 -35.92539978 196.6232605 C-36.03457382 209.0282471 -36.03457382 209.0282471 -31.40820312 220.38818359 C-30.87195313 221.29568359 -30.33570312 222.20318359 -29.78320312 223.13818359 C-21.16047065 231.30708805 -11.24900791 231.10851402 -0.09179688 231.03515625 C1.64713453 231.04194146 3.38605873 231.05084965 5.12496948 231.06170654 C9.82342706 231.08439913 14.52133246 231.07570528 19.21979904 231.05981112 C24.1505348 231.04709987 29.08122516 231.05890669 34.01196289 231.06674194 C42.29028764 231.07582333 50.56838892 231.0638903 58.84667969 231.04003906 C68.40012173 231.01283072 77.95303012 231.02164595 87.50645924 231.04917109 C95.72760218 231.07190426 103.94858502 231.07504169 112.16974926 231.06197774 C117.07167996 231.05420634 121.97336031 231.05307779 126.87527466 231.06966019 C131.48516791 231.08416709 136.09437712 231.07397032 140.70419693 231.0451889 C142.38995354 231.03861118 144.07576831 231.04041867 145.76150131 231.05150223 C155.84570258 231.11166218 164.55488053 230.74230528 172.48170471 223.71203041 C181.10868165 214.93869819 180.03667916 202.79376834 180.02758789 191.36474609 C180.03114803 189.29131886 180.05840771 187.21919202 180.08789062 185.14599609 C180.08974365 183.92025879 180.09159668 182.69452148 180.09350586 181.43164062 C180.59179688 178.38818359 180.59179688 178.38818359 182.43579102 176.49316406 C185.39811775 174.97493387 187.30714917 174.90917247 190.59179688 175.38818359 C193.6718301 177.647596 194.50703688 178.85151687 195.109375 182.6652832 C195.11614258 184.58352905 195.11614258 184.58352905 195.12304688 186.54052734 C195.12687378 187.23650528 195.13070068 187.93248322 195.13464355 188.64955139 C195.13736206 190.12469933 195.13000487 191.59989553 195.11328125 193.07495117 C195.09215716 195.28793931 195.11292635 197.49757165 195.13867188 199.71044922 C195.16543152 212.80336499 193.14251351 224.7239931 183.59179688 234.38818359 C172.3782425 245.05059919 160.36797863 245.98093731 145.61108398 245.90576172 C143.81289607 245.91119072 142.01471261 245.91831773 140.21653748 245.92700195 C135.36118815 245.94514442 130.50618107 245.93820583 125.65082622 245.92548561 C120.55460784 245.91531226 115.45841748 245.92476313 110.36219788 245.93103027 C101.80741143 245.93829343 93.25276344 245.92875329 84.69799805 245.90966797 C74.82479958 245.88789486 64.9519315 245.8949592 55.07874101 245.91697359 C46.58158932 245.93515727 38.08453676 245.93767162 29.58737189 245.92721891 C24.52116933 245.92100119 19.4551218 245.92010098 14.38892937 245.93336487 C9.62563382 245.94496627 4.86276212 245.93681961 0.0995121 245.91378784 C-1.64268924 245.9085239 -3.3849266 245.90997462 -5.12711334 245.9188385 C-18.45718352 245.98037823 -28.87890074 244.37967867 -39.03320312 234.95068359 C-46.72181369 226.65507746 -50.55403856 219.30588087 -50.56210327 207.96459961 C-50.56648553 207.21419151 -50.57086778 206.46378342 -50.57538283 205.69063568 C-50.58874415 203.17445116 -50.59494376 200.65830164 -50.60107422 198.14208984 C-50.60897748 196.33833153 -50.61724657 194.53457479 -50.62585449 192.7308197 C-50.65205535 186.80412298 -50.66738326 180.87741928 -50.68164062 174.95068359 C-50.68700168 172.90787756 -50.69237919 170.86507157 -50.69777298 168.82226562 C-50.71940157 160.32097994 -50.73813592 151.81969613 -50.74939537 143.31838989 C-50.76561849 131.15058797 -50.79875686 118.98310618 -50.85579622 106.81542492 C-50.89456401 98.25217026 -50.91403633 89.68900098 -50.91931593 81.1256609 C-50.92296087 76.0156046 -50.9348904 70.90588991 -50.96741867 65.79592896 C-50.9976186 60.98265191 -51.00376878 56.16992101 -50.99203491 51.35656929 C-50.99181515 49.59744792 -51.00003875 47.83830034 -51.01768875 46.0792675 C-51.15204542 31.90863545 -49.05237369 21.09277026 -38.79492188 10.51318359 C-27.56818299 0.51752737 -14.29753723 -0.0560778 0 0 Z " fill="#000000" transform="translate(50.408203125,266.61181640625)"/>
<path d="M0 0 C4.29306295 1.1545911 6.07087887 2.6319142 9.22265625 5.734375 C10.24901219 6.73538882 11.27640276 7.73534264 12.3046875 8.734375 C13.110271 9.52714844 13.110271 9.52714844 13.93212891 10.3359375 C15.75442532 12.07430221 17.63595675 13.71915049 19.546875 15.359375 C20.19003662 15.92172852 20.83319824 16.48408203 21.49584961 17.06347656 C22.7490757 18.15735226 24.01392954 19.238081 25.29125977 20.30371094 C28.46353353 23.13048066 29.55595193 24.30559961 30.22265625 28.6484375 C29.64869279 32.05235972 29.28657095 33.22164404 26.91015625 35.609375 C26.26691406 36.28097656 25.62367188 36.95257813 24.9609375 37.64453125 C24.20167969 38.41667969 23.44242188 39.18882812 22.66015625 39.984375 C21.30027244 41.46076289 19.94071722 42.93746794 18.58691406 44.41943359 C13.06323019 50.45564288 7.45969446 56.41911304 1.87280273 62.39672852 C-1.87910717 66.41283563 -5.61616274 70.44209026 -9.33984375 74.484375 C-14.24643514 79.8107817 -19.18378514 85.10780575 -24.12890625 90.3984375 C-27.88013918 94.41407451 -31.61670832 98.44268253 -35.33984375 102.484375 C-40.23975744 107.80353264 -45.16960134 113.0940923 -50.10913086 118.37646484 C-54.5455277 123.12398242 -58.95743805 127.89349016 -63.34570312 132.68554688 C-71.74517434 141.82579649 -71.74517434 141.82579649 -75.15234375 142.734375 C-78.55350347 141.93410213 -79.52079412 141.18403805 -82.04296875 138.8984375 C-82.74655518 138.26421875 -83.4501416 137.63 -84.17504883 136.9765625 C-84.88943115 136.31914062 -85.60381348 135.66171875 -86.33984375 134.984375 C-87.00072998 134.37851562 -87.66161621 133.77265625 -88.3425293 133.1484375 C-90.33045801 131.31213257 -92.3059667 129.46343108 -94.27734375 127.609375 C-94.97537109 126.95453125 -95.67339844 126.2996875 -96.39257812 125.625 C-100.81922412 121.45777605 -105.14727192 117.20997993 -109.4140625 112.87890625 C-111.26658249 111.05644744 -113.17606816 109.3583505 -115.15234375 107.671875 C-118.72883267 104.60937252 -122.03373256 101.33156227 -125.33984375 97.984375 C-128.54326714 94.74139707 -131.73091669 91.5550129 -135.21484375 88.609375 C-139.20735588 85.1690188 -143.04258653 81.57508852 -146.83984375 77.921875 C-147.47647949 77.33164551 -148.11311523 76.74141602 -148.76904297 76.13330078 C-151.46853432 73.49862668 -153.12891841 71.71773115 -154.18359375 68.05078125 C-152.86830609 63.2706849 -149.75072364 60.47290224 -146.33984375 56.984375 C-144.96724254 55.50921371 -143.59616702 54.03263146 -142.2265625 52.5546875 C-140.82827984 51.07154175 -139.42853112 49.58977686 -138.02734375 48.109375 C-137.31255859 47.35140625 -136.59777344 46.5934375 -135.86132812 45.8125 C-128.50843898 38.02301141 -128.50843898 38.02301141 -125.33984375 37.296875 C-119.31270826 37.47193703 -115.2950727 42.98668194 -111.33984375 46.984375 C-110.17195313 48.15033203 -110.17195313 48.15033203 -108.98046875 49.33984375 C-107.47459463 50.84831421 -105.97325105 52.36132153 -104.4765625 53.87890625 C-102.55223666 55.77508838 -100.5832619 57.54616532 -98.52734375 59.296875 C-94.30462821 62.90784905 -90.43046204 66.83729361 -86.55151367 70.80981445 C-83.95701614 73.44890424 -81.38173067 75.86953933 -78.33984375 77.984375 C-75.19941544 76.60377323 -73.19523835 75.03808657 -70.87109375 72.52734375 C-70.22382324 71.83366699 -69.57655273 71.13999023 -68.90966797 70.42529297 C-68.22662598 69.68166504 -67.54358398 68.93803711 -66.83984375 68.171875 C-66.12715332 67.40504395 -65.41446289 66.63821289 -64.68017578 65.84814453 C-62.56101928 63.56542738 -60.44957422 61.27580229 -58.33984375 58.984375 C-57.26461051 57.82134863 -56.18911944 56.65856054 -55.11328125 55.49609375 C-53.18334838 53.40885726 -51.25680693 51.31855469 -49.33203125 49.2265625 C-46.01852081 45.62973253 -42.67955819 42.05686017 -39.33984375 38.484375 C-34.99104135 33.83180905 -30.65479532 29.16835423 -26.33984375 24.484375 C-21.83438124 19.59499794 -17.31170206 14.72197021 -12.77734375 9.859375 C-12.18115234 9.21935547 -11.58496094 8.57933594 -10.97070312 7.91992188 C-10.41060547 7.31986328 -9.85050781 6.71980469 -9.2734375 6.1015625 C-8.77900146 5.57159668 -8.28456543 5.04163086 -7.77514648 4.49560547 C-7.30149658 3.99689941 -6.82784668 3.49819336 -6.33984375 2.984375 C-5.85322266 2.42476074 -5.36660156 1.86514648 -4.86523438 1.28857422 C-3.33984375 -0.015625 -3.33984375 -0.015625 0 0 Z " fill="#030302" transform="translate(453.33984375,321.015625)"/>
<path d="M0 0 C1.43603887 -0.01641923 2.87200091 -0.04351993 4.30761719 -0.08203125 C17.22041728 -0.42557596 28.54383138 1.69521054 38.74438477 10.34228516 C46.67858841 18.32306925 52.16274238 28.36728893 52.23815918 39.75004578 C52.22377808 40.62111465 52.20939697 41.49218353 52.19458008 42.38964844 C52.19516418 43.33720505 52.19574829 44.28476166 52.1963501 45.2610321 C52.19358967 48.35621302 52.16259495 51.45039996 52.13110352 54.54541016 C52.12363386 56.70587641 52.11794435 58.86634948 52.11395264 61.02682495 C52.09875345 66.68549638 52.05952109 72.34375058 52.01513672 78.0022583 C51.97406034 83.78741819 51.95591528 89.57264615 51.93579102 95.35791016 C51.89302104 106.68885118 51.82271815 118.01937429 51.74047852 129.35009766 C45.80047852 129.35009766 39.86047852 129.35009766 33.74047852 129.35009766 C33.6844043 126.15386719 33.6844043 126.15386719 33.62719727 122.89306641 C33.58097595 120.82777685 33.52974486 118.76266813 33.47802734 116.69750977 C33.44478851 115.26305138 33.41675317 113.82846253 33.39404297 112.39379883 C33.36047581 110.33048959 33.30816438 108.26837463 33.25219727 106.20556641 C33.22601318 104.96444092 33.1998291 103.72331543 33.17285156 102.44458008 C32.99688058 99.43383649 32.99688058 99.43383649 31.5415802 97.68095398 C29.10290607 95.87898748 27.50814723 95.96954713 24.49047852 95.96191406 C23.41926758 95.95245758 22.34805664 95.9430011 21.24438477 95.93325806 C20.0880957 95.93933075 18.93180664 95.94540344 17.74047852 95.95166016 C15.95963867 95.94735489 15.95963867 95.94735489 14.14282227 95.94296265 C11.63109867 95.94091989 9.11935924 95.94646443 6.60766602 95.95898438 C2.7557428 95.97503406 -1.09513103 95.95914178 -4.94702148 95.93994141 C-7.38452381 95.9419238 -9.82202548 95.94576739 -12.25952148 95.95166016 C-13.99395508 95.94255112 -13.99395508 95.94255112 -15.76342773 95.93325806 C-17.37024414 95.94744278 -17.37024414 95.94744278 -19.00952148 95.96191406 C-20.42491211 95.96549423 -20.42491211 95.96549423 -21.86889648 95.96914673 C-24.30362261 96.16906349 -24.30362261 96.16906349 -26.06062317 97.68095398 C-27.99269926 100.37085065 -27.70244798 102.94481344 -27.77124023 106.20556641 C-27.78919144 106.86720291 -27.80714264 107.52883942 -27.82563782 108.21052551 C-27.87973047 110.31948512 -27.91363079 112.42821864 -27.94702148 114.53759766 C-27.98019576 115.96926974 -28.01468553 117.40091199 -28.05053711 118.83251953 C-28.13793035 122.33841115 -28.19799828 125.84327482 -28.25952148 129.35009766 C-34.19952148 129.35009766 -40.13952148 129.35009766 -46.25952148 129.35009766 C-46.35015603 117.30128013 -46.42342949 105.25269177 -46.46677017 93.20360947 C-46.48757924 87.607778 -46.51577422 82.01219336 -46.5612793 76.41650391 C-46.60497602 71.00888925 -46.62870875 65.60151091 -46.63903046 60.19373322 C-46.64637923 58.13820937 -46.66072891 56.08269738 -46.68244171 54.02727509 C-46.85231345 37.26880887 -45.3612455 24.10286833 -33.38061523 11.35009766 C-23.32124912 1.92071204 -13.28454856 0.11071704 0 0 Z " fill="#FBF1F1" transform="translate(119.259521484375,49.64990234375)"/>
<path d="M0 0 C2.43197411 0.0138803 4.86009558 -0.02033588 7.29174805 -0.05834961 C23.47533515 -0.13751389 37.1100558 4.90201964 49.12573242 16.07641602 C59.99780787 27.44501145 65.46811137 40.89261574 65.4206543 56.56225586 C65.42912384 57.61067657 65.43759338 58.65909729 65.44631958 59.73928833 C65.46954188 63.17210314 65.4707159 66.60446644 65.46948242 70.03735352 C65.47658836 72.43486712 65.48428799 74.83237903 65.49255371 77.22988892 C65.50596117 82.23786157 65.507582 87.24567659 65.50170898 92.25366211 C65.4957892 98.67662573 65.52651663 105.09883964 65.56682587 111.52165794 C65.5926332 116.46469206 65.59558711 121.40754332 65.5919342 126.35063553 C65.59362919 128.71977258 65.60330792 131.08891773 65.62107849 133.45798874 C65.64314996 136.76149232 65.63362844 140.06344628 65.6159668 143.36694336 C65.62923004 144.34673157 65.64249329 145.32651978 65.65615845 146.33599854 C65.57404556 152.92753109 65.57404556 152.92753109 62.69934082 156.1811676 C59.07935617 158.05279071 55.79861704 158.16932083 51.81323242 158.14282227 C51.03310791 158.14902084 50.2529834 158.15521942 49.44921875 158.16160583 C47.80526981 158.16868721 46.16124891 158.16555932 44.51733398 158.15283203 C42.00784975 158.13895537 39.50209009 158.17306704 36.99291992 158.21118164 C35.39135651 158.21213285 33.78978846 158.21027389 32.18823242 158.20532227 C31.44226807 158.21858047 30.69630371 158.23183868 29.92773438 158.24549866 C26.1263562 158.177846 24.14470469 157.67842634 21.01953125 155.46411133 C18.54208063 151.92035925 18.41790716 150.03668286 18.51245117 145.74438477 C18.52493896 144.57931396 18.53742676 143.41424316 18.55029297 142.21386719 C18.618573 140.01114136 18.618573 140.01114136 18.68823242 137.76391602 C18.79135742 133.08204102 18.89448242 128.40016602 19.00073242 123.57641602 C7.78073242 123.57641602 -3.43926758 123.57641602 -14.99926758 123.57641602 C-14.80171484 133.2699918 -14.80171484 133.2699918 -14.54882812 142.9621582 C-14.53009644 144.77441895 -14.53009644 144.77441895 -14.51098633 146.62329102 C-14.48480225 147.85917969 -14.45861816 149.09506836 -14.43164062 150.3684082 C-14.99926758 153.57641602 -14.99926758 153.57641602 -17.01806641 155.97558594 C-20.77986928 157.99557951 -24.01713478 158.17054589 -28.18676758 158.14282227 C-28.96689209 158.14902084 -29.7470166 158.15521942 -30.55078125 158.16160583 C-32.19473019 158.16868721 -33.83875109 158.16555932 -35.48266602 158.15283203 C-37.99215025 158.13895537 -40.49790991 158.17306704 -43.00708008 158.21118164 C-44.60864349 158.21213285 -46.21021154 158.21027389 -47.81176758 158.20532227 C-48.55773193 158.21858047 -49.30369629 158.23183868 -50.07226562 158.24549866 C-53.67462728 158.18138787 -55.74385594 157.75805901 -58.69787598 155.65722656 C-61.9394031 151.31788207 -61.68941365 147.93694604 -61.61450195 142.65234375 C-61.62005096 141.65651779 -61.62559998 140.66069183 -61.63131714 139.63468933 C-61.64312579 136.34263963 -61.61881275 133.05196334 -61.59301758 129.76000977 C-61.59130581 127.46419843 -61.59137283 125.16838514 -61.59313965 122.87257385 C-61.59148535 118.05646094 -61.57277575 113.24081286 -61.54125977 108.42480469 C-61.50173875 102.27725975 -61.49719597 96.13032806 -61.5047226 89.98268032 C-61.50780693 85.23745697 -61.49561729 80.4923692 -61.47859192 75.74717903 C-61.47159888 73.48237015 -61.46843286 71.21754589 -61.46928406 68.95272636 C-61.45720328 47.78495993 -59.22323184 31.1190516 -43.79614258 15.08422852 C-30.85507253 3.48064336 -16.94604199 -0.13466827 0 0 Z M-37.24926758 28.88891602 C-44.4846519 37.83265497 -47.32134284 47.7168415 -47.22631836 59 C-47.22661041 59.91785782 -47.22690247 60.83571564 -47.22720337 61.78138733 C-47.22581741 64.7951932 -47.21029082 67.80874743 -47.19458008 70.82250977 C-47.19084734 72.92000697 -47.1880016 75.01750592 -47.18600464 77.11500549 C-47.17838873 82.62068543 -47.15875779 88.12625893 -47.13659668 93.63189697 C-47.11609421 99.2559668 -47.10699352 104.88005392 -47.09692383 110.50415039 C-47.07550995 121.52829309 -47.04034446 132.55232902 -46.99926758 143.57641602 C-41.05926758 143.57641602 -35.11926758 143.57641602 -28.99926758 143.57641602 C-28.96188477 141.4455957 -28.92450195 139.31477539 -28.88598633 137.11938477 C-28.83976501 135.05409521 -28.78853392 132.98898649 -28.73681641 130.92382812 C-28.70357757 129.48936974 -28.67554223 128.05478089 -28.65283203 126.62011719 C-28.61926487 124.55680795 -28.56695345 122.49469299 -28.51098633 120.43188477 C-28.48480225 119.19075928 -28.45861816 117.94963379 -28.43164062 116.67089844 C-27.99926758 113.57641602 -27.99926758 113.57641602 -26.80036926 111.90727234 C-24.36169513 110.10530584 -22.76693629 110.19586549 -19.74926758 110.18823242 C-18.14245117 110.1740477 -18.14245117 110.1740477 -16.50317383 110.15957642 C-14.76874023 110.16868546 -14.76874023 110.16868546 -12.99926758 110.17797852 C-11.81204102 110.17510834 -10.62481445 110.17223816 -9.40161133 110.16928101 C-6.88988773 110.16723825 -4.3781483 110.17278279 -1.86645508 110.18530273 C1.98546814 110.20135241 5.83634197 110.18546014 9.68823242 110.16625977 C12.12573475 110.16824216 14.56323641 110.17208575 17.00073242 110.17797852 C18.15702148 110.17190582 19.31331055 110.16583313 20.50463867 110.15957642 C21.57584961 110.1690329 22.64706055 110.17848938 23.75073242 110.18823242 C25.16612305 110.19181259 25.16612305 110.19181259 26.61010742 110.19546509 C29.00073242 110.57641602 29.00073242 110.57641602 30.80183411 111.90727234 C32.7339102 114.59716901 32.44365892 117.1711318 32.51245117 120.43188477 C32.53040237 121.09352127 32.54835358 121.75515778 32.56684875 122.43684387 C32.62094141 124.54580348 32.65484173 126.654537 32.68823242 128.76391602 C32.72140669 130.1955881 32.75589647 131.62723035 32.79174805 133.05883789 C32.87914129 136.56472951 32.93920921 140.06959318 33.00073242 143.57641602 C38.94073242 143.57641602 44.88073242 143.57641602 51.00073242 143.57641602 C51.11400677 131.13645321 51.20560617 118.69683683 51.25979328 106.25647354 C51.2858095 100.4789732 51.3210616 94.70184612 51.37792969 88.92456055 C51.43253406 83.34186927 51.46221285 77.75953546 51.47511864 72.1765976 C51.48430764 70.05406829 51.50225096 67.931557 51.52938271 65.80918121 C51.71176162 50.94195705 50.97012703 39.48876661 41.00463867 27.60766602 C31.87942351 18.35793525 21.18396733 14.15182932 8.26824951 14.02510071 C6.87989108 14.02807567 5.49153093 14.03808855 4.10327148 14.05493164 C2.00281402 14.07639475 -0.09422535 14.05502362 -2.19458008 14.02954102 C-16.80555179 13.99801916 -27.28419589 18.13779542 -37.24926758 28.88891602 Z " fill="#040202" transform="translate(119.999267578125,35.423583984375)"/>
<path d="M0 0 C0.75198669 -0.00554901 1.50397339 -0.01109802 2.27874756 -0.01681519 C4.75932046 -0.02860208 7.23806114 -0.00433247 9.71850586 0.02148438 C11.4538108 0.02319708 13.18911833 0.02312817 14.92442322 0.0213623 C18.56363662 0.02301546 22.20223404 0.04169981 25.84130859 0.07324219 C30.47555543 0.11271273 35.1089882 0.11731131 39.74337101 0.10977936 C43.33053362 0.10668723 46.91751791 0.11891261 50.50463676 0.13591003 C52.21122554 0.14288067 53.91783454 0.14607188 55.62443733 0.1452179 C72.00197951 0.15766085 87.1893174 2.24441388 99.75366211 13.87695312 C110.08439801 24.98124654 114.2440467 37.54583418 113.96777344 52.55371094 C113.93335901 54.61467154 113.94721478 56.67133837 113.96655273 58.73242188 C113.95663413 66.54875008 112.96054952 73.36663112 110.32373047 80.74804688 C108.46909336 86.32212435 108.46909336 86.32212435 109.11303711 91.99414062 C109.6737793 93.07501953 109.6737793 93.07501953 110.24584961 94.17773438 C114.12860785 101.793914 113.55419504 109.48131389 113.55834961 117.86523438 C113.5705957 119.15042969 113.5828418 120.435625 113.59545898 121.75976562 C113.61794547 136.37598229 110.47035311 149.46174175 100.30834961 160.55273438 C91.00200275 169.10882685 78.57455769 173.9104253 66.02050781 173.92163086 C65.21636444 173.92995438 64.41222107 173.93827789 63.58370972 173.94685364 C60.94629988 173.97079848 58.30913758 173.97970316 55.67163086 173.98632812 C53.8303368 173.99530074 51.98904347 174.0044227 50.14775085 174.01368713 C46.29884064 174.03013346 42.45001704 174.03787026 38.60107422 174.04077148 C33.66778863 174.04617498 28.73531419 174.08395412 23.80225849 174.12951565 C20.00444034 174.15922942 16.20681981 174.16649367 12.40889549 174.16749763 C10.58958374 174.17170517 8.77027169 174.18416084 6.9510746 174.20501518 C4.41110443 174.23183482 1.87304665 174.22713538 -0.66699219 174.21459961 C-1.79309151 174.23685104 -1.79309151 174.23685104 -2.94194031 174.259552 C-6.4962661 174.20952995 -8.22333424 174.00703443 -10.82104111 171.49904728 C-13.01592844 167.99834935 -13.13412231 165.97150329 -13.14381409 161.85949707 C-13.15075962 161.19313374 -13.15770514 160.52677041 -13.16486114 159.84021425 C-13.18311097 157.61448667 -13.17287353 155.38982745 -13.16259766 153.1640625 C-13.16965716 151.56553857 -13.17840231 149.96702133 -13.18870544 148.36851501 C-13.2112045 144.03172726 -13.20825879 139.69530435 -13.19938397 135.35848045 C-13.1942739 131.73755239 -13.2015667 128.11669288 -13.20885605 124.49577188 C-13.2258563 115.95431431 -13.2222875 107.41303539 -13.20556641 98.87158203 C-13.18863852 90.05943255 -13.20448836 81.24777819 -13.23678929 72.43568277 C-13.26347568 64.86865018 -13.27076397 57.3017718 -13.26227421 49.73469687 C-13.25734296 45.21568404 -13.25957134 40.69696924 -13.28006172 36.17799377 C-13.29840446 31.92932574 -13.29247795 27.68137077 -13.26786232 23.43274117 C-13.26285017 21.87388529 -13.26635477 20.3149752 -13.27901077 18.75616264 C-13.29492999 16.62694476 -13.28000685 14.50007848 -13.25733948 12.37097168 C-13.25675317 11.18005669 -13.25616686 9.98914169 -13.25556278 8.76213837 C-11.79866033 1.44310668 -6.71708984 -0.12693121 0 0 Z M1.37084961 14.61523438 C1.37084961 62.46523438 1.37084961 110.31523437 1.37084961 159.61523438 C46.8561386 165.18267874 46.8561386 165.18267874 89.80834961 150.92773438 C97.89424655 142.06693898 99.6385436 132.83762728 99.77587891 121.23071289 C99.80774829 119.21575298 99.87702945 117.20149608 99.94702148 115.1875 C100.05244107 105.93349386 98.38325169 99.43345859 93.37084961 91.61523438 C93.04084961 91.28523438 92.71084961 90.95523438 92.37084961 90.61523438 C91.84202717 85.50328417 93.04693698 83.28386731 95.87084961 79.11523438 C100.21331138 71.65736493 100.07463052 63.73013914 100.05834961 55.30273438 C100.06479492 54.00335938 100.07124023 52.70398438 100.07788086 51.36523438 C99.94010471 43.91766802 99.17755882 38.07322154 95.37084961 31.61523438 C94.91323242 30.81730469 94.45561523 30.019375 93.98413086 29.19726562 C88.16467108 21.28070322 81.52130671 18.04665579 72.37084961 14.61523438 C48.94084961 14.61523438 25.51084961 14.61523438 1.37084961 14.61523438 Z " fill="#020304" transform="translate(71.629150390625,302.384765625)"/>
<path d="M0 0 C1.22792267 -0.0127597 2.45584534 -0.02551941 3.72097778 -0.03866577 C5.03363617 -0.04089142 6.34629456 -0.04311707 7.69873047 -0.04541016 C9.07062924 -0.0518436 10.44252666 -0.05857237 11.81442261 -0.06558228 C14.68067611 -0.07751887 17.54680936 -0.08126647 20.41308594 -0.08007812 C24.08299997 -0.07987426 27.75214545 -0.10726034 31.42187691 -0.14162254 C34.25120585 -0.16386339 37.08034829 -0.16791668 39.90975571 -0.16685867 C41.91947915 -0.17035921 43.92914442 -0.19202514 45.93875122 -0.21395874 C47.77117874 -0.20472885 47.77117874 -0.20472885 49.640625 -0.1953125 C50.71506866 -0.19816254 51.78951233 -0.20101257 52.89651489 -0.20394897 C56.40067973 0.41612139 57.57451431 1.4706914 59.69091797 4.29052734 C60.10093577 7.18917494 60.27591817 9.70123916 60.25732422 12.59912109 C60.2635228 13.4028566 60.26972137 14.2065921 60.27610779 15.03468323 C60.28319995 16.73168733 60.28004237 18.42876109 60.26733398 20.12573242 C60.25347973 22.71647852 60.28752734 25.30360259 60.32568359 27.89404297 C60.32663498 29.54573656 60.32477493 31.19743465 60.31982422 32.84912109 C60.33308243 33.62009628 60.34634064 34.39107147 60.36000061 35.18540955 C60.29730586 38.82450083 59.77755862 41.14482649 57.91162109 44.28271484 C52.94465227 47.37916357 48.26920813 46.93968834 42.53076172 46.85693359 C41.34873672 46.86256821 40.16671173 46.86820282 38.9488678 46.87400818 C35.17498118 46.89047035 31.40226421 46.87489705 27.62841797 46.85302734 C23.85111166 46.83645284 20.07457428 46.82730568 16.29725647 46.84275818 C13.94783804 46.85206358 11.59825775 46.84279075 9.24900818 46.81312561 C8.18432816 46.81670578 7.11964813 46.82028595 6.02270508 46.82397461 C4.61969398 46.81467674 4.61969398 46.81467674 3.18833923 46.80519104 C-0.19728866 47.46313696 -1.31998148 48.48738412 -3.30908203 51.29052734 C-3.92180732 54.47850743 -3.92180732 54.47850743 -3.8425293 58.09106445 C-3.85114487 58.76636703 -3.85976044 59.44166962 -3.86863708 60.13743591 C-3.89129723 62.36464014 -3.88455877 64.59058599 -3.87548828 66.81787109 C-3.88072426 68.3695971 -3.88700064 69.92131992 -3.89427185 71.47303772 C-3.90467631 74.72379542 -3.90011487 77.97411541 -3.88549805 81.22485352 C-3.86831742 85.38592072 -3.89179444 89.54560614 -3.92698765 93.70651913 C-3.94897519 96.91082366 -3.94751693 100.11479831 -3.93922234 103.31915474 C-3.93840339 104.8529264 -3.94525605 106.38672243 -3.95999336 107.92042351 C-3.97746476 110.06800456 -3.96288074 112.21311302 -3.94018555 114.3605957 C-3.93922379 115.58097031 -3.93826202 116.80134491 -3.93727112 118.05870056 C-3.12036288 122.26142549 -1.70026664 123.73772063 1.69091797 126.29052734 C4.27855104 127.01222269 4.27855104 127.01222269 7.04443359 126.88647461 C8.6113092 126.8965731 8.6113092 126.8965731 10.20983887 126.90687561 C11.88656677 126.88215431 11.88656677 126.88215431 13.59716797 126.85693359 C15.33335388 126.86538551 15.33335388 126.86538551 17.10461426 126.87400818 C20.80046072 126.89046801 24.49511282 126.87490313 28.19091797 126.85302734 C31.8866111 126.83644072 35.58151657 126.82732671 39.27722168 126.84275818 C41.5754826 126.85204665 43.87390956 126.84284654 46.17199707 126.81312561 C50.61015702 126.8283368 53.84548555 126.89249482 57.89355469 128.79833984 C60.41257486 132.29116217 60.40935446 135.44632799 60.35498047 139.59912109 C60.3597641 140.4028566 60.36454773 141.2065921 60.36947632 142.03468323 C60.37287321 143.73171957 60.36368522 145.42882153 60.34277344 147.12573242 C60.31603525 149.71666288 60.34250532 152.30324823 60.37451172 154.89404297 C60.37120689 156.5457452 60.36479914 158.19744474 60.35498047 159.84912109 C60.36510162 160.62009628 60.37522278 161.39107147 60.38565063 162.18540955 C60.30739674 165.79741439 59.77205409 168.15170904 57.94433594 171.27880859 C52.8299113 174.44126237 47.86969204 173.98447909 41.97216797 173.91943359 C40.72270386 173.92184555 39.47323975 173.92425751 38.18591309 173.92674255 C35.53892109 173.92576293 32.89418617 173.91494886 30.24755859 173.88745117 C27.55705225 173.86033566 24.86785394 173.85307678 22.17724609 173.86694336 C18.27517187 173.88589711 14.37422426 173.87617379 10.47216797 173.85693359 C9.28627075 173.86189346 8.10037354 173.86685333 6.87854004 173.8719635 C-7.24247865 173.67650118 -21.7896714 169.10864393 -32.30908203 159.29052734 C-33.72950024 156.44969093 -33.62360475 154.43575457 -33.30908203 151.29052734 C-31.74658203 148.85302734 -31.74658203 148.85302734 -29.30908203 147.29052734 C-23.15090318 146.91349599 -19.24077011 150.0278485 -14.34814453 153.50146484 C-6.80738018 157.94062946 0.44162935 158.74730433 9.06982422 158.80224609 C10.12249985 158.8201973 11.17517548 158.8381485 12.25975037 158.85664368 C15.59093329 158.91041861 18.92197565 158.94453704 22.25341797 158.97802734 C24.52492177 159.01122936 26.79640709 159.04572165 29.06787109 159.08154297 C34.60878475 159.16612623 40.14965909 159.23309346 45.69091797 159.29052734 C45.69091797 153.35052734 45.69091797 147.41052734 45.69091797 141.29052734 C44.33933594 141.31147461 42.98775391 141.33242187 41.59521484 141.35400391 C36.55593561 141.42668691 31.51670226 141.47243004 26.47705078 141.51025391 C24.30053909 141.53030498 22.12408083 141.55755305 19.94775391 141.59228516 C16.80992404 141.64108946 13.67280962 141.66356172 10.53466797 141.68115234 C9.5697644 141.70179749 8.60486084 141.72244263 7.61071777 141.74371338 C-0.76752968 141.74646371 -7.23913478 139.19186495 -13.30908203 133.29052734 C-17.48591285 127.26516667 -18.42981236 122.48650445 -18.48608398 115.26220703 C-18.49265518 114.56246262 -18.49922638 113.8627182 -18.5059967 113.14176941 C-18.52566459 110.83197917 -18.53737821 108.52225377 -18.54736328 106.21240234 C-18.55347657 105.02481701 -18.55347657 105.02481701 -18.55971336 103.81324005 C-18.5805472 99.62191532 -18.59486003 95.43062306 -18.60424805 91.23925781 C-18.61530198 86.92406666 -18.64969747 82.60939264 -18.68941975 78.294384 C-18.71564263 74.96393923 -18.72394492 71.63361661 -18.72752953 68.3030777 C-18.73238149 66.71315268 -18.74395566 65.1232326 -18.76256752 63.53340912 C-18.866721 54.04639178 -18.89967581 46.62453712 -12.37939453 39.04833984 C-11.73744141 38.50951172 -11.09548828 37.97068359 -10.43408203 37.41552734 C-9.47888672 36.58408203 -9.47888672 36.58408203 -8.50439453 35.73583984 C-2.54883993 31.81492311 3.47266474 32.02253232 10.33935547 32.09521484 C11.35188385 32.09804474 12.36441223 32.10087463 13.40762329 32.10379028 C16.62717735 32.1149448 19.84644862 32.14004088 23.06591797 32.16552734 C25.25471602 32.17556325 27.44351845 32.18468803 29.63232422 32.19287109 C34.98529701 32.21486869 40.33805961 32.24936612 45.69091797 32.29052734 C45.69091797 26.02052734 45.69091797 19.75052734 45.69091797 13.29052734 C39.51920379 13.34189409 33.3498732 13.40527988 27.17895508 13.49804688 C25.0852855 13.52605476 22.99151414 13.54736829 20.89770508 13.56152344 C4.62197366 13.67808394 -10.22273686 14.28332112 -23.30908203 25.29052734 C-32.12532315 34.96761356 -35.81970011 44.41651871 -35.80688477 57.31445312 C-35.86477806 60.98497223 -36.2014876 63.11682616 -38.15283203 66.26708984 C-40.30908203 68.29052734 -40.30908203 68.29052734 -43.30908203 68.85302734 C-47.07544301 68.14683466 -48.03671816 67.36207003 -50.30908203 64.29052734 C-50.71659714 61.32106064 -50.87964339 58.813215 -50.80908203 55.85302734 C-50.79772217 55.0526001 -50.7863623 54.25217285 -50.7746582 53.42749023 C-50.2618766 37.55031122 -43.40813318 25.26221233 -32.30908203 14.29052734 C-23.58903587 6.29973771 -12.01263976 0.08510832 0 0 Z " fill="#040301" transform="translate(377.30908203125,35.70947265625)"/>
<path d="M0 0 C2.10870693 0.020103 4.21743244 0.03834702 6.32617188 0.0546875 C11.44745802 0.09493336 16.56611724 0.17327516 21.6875 0.25 C21.6875 6.52 21.6875 12.79 21.6875 19.25 C20.33068115 19.26458252 18.9738623 19.27916504 17.57592773 19.29418945 C12.52325603 19.3523319 7.47102254 19.42956419 2.41870117 19.51245117 C0.2355055 19.54562552 -1.94777439 19.5736806 -4.13110352 19.59643555 C-7.27656817 19.63011904 -10.42126624 19.68244276 -13.56640625 19.73828125 C-15.02150352 19.74786613 -15.02150352 19.74786613 -16.5059967 19.75764465 C-25.12883694 19.94308259 -31.03734951 21.97484951 -37.3125 28.25 C-42.5060845 35.8692279 -41.87846941 43.8603786 -41.80859375 52.71875 C-41.80874897 54.32482977 -41.8102417 55.93090991 -41.81300354 57.5369873 C-41.81438316 60.89250377 -41.8019034 64.24759054 -41.77905273 67.60302734 C-41.7506692 71.88670235 -41.7534112 76.16966425 -41.76614285 80.45339203 C-41.77312471 83.76672367 -41.76528226 87.07989285 -41.75288582 90.39320374 C-41.74839563 91.97192256 -41.74801306 93.55065897 -41.75195122 95.12937927 C-41.98126261 108.4387087 -41.98126261 108.4387087 -36 120 C-30.81418978 124.34160856 -26.60114485 127.3239164 -19.74926758 127.45532227 C-18.82853958 127.47526749 -17.90781158 127.49521271 -16.95918274 127.51576233 C-15.96847275 127.53247482 -14.97776276 127.54918732 -13.95703125 127.56640625 C-12.43187141 127.5975779 -12.43187141 127.5975779 -10.87590027 127.62937927 C-7.62566937 127.69480048 -4.37535723 127.75372537 -1.125 127.8125 C1.07748238 127.85569227 3.27995653 127.89930679 5.48242188 127.94335938 C10.88403117 128.05047432 16.28572225 128.15176289 21.6875 128.25 C21.6875 134.19 21.6875 140.13 21.6875 146.25 C15.05302207 146.34951908 8.41898697 146.42177505 1.78393555 146.46972656 C-0.46907123 146.48973464 -2.72202679 146.51694991 -4.97485352 146.55175781 C-8.22945867 146.60075342 -11.48337217 146.62307756 -14.73828125 146.640625 C-16.22803215 146.67159271 -16.22803215 146.67159271 -17.74787903 146.70318604 C-27.22613381 146.70616845 -35.3633998 144.1319821 -43 138.4375 C-46.55448553 136.03720086 -48.68205496 134.74995082 -53 135.3125 C-54.093125 135.621875 -55.18625 135.93125 -56.3125 136.25 C-67.18904799 120.30766254 -67.18904799 120.30766254 -66.3125 111.25 C-65.673125 111.146875 -65.03375 111.04375 -64.375 110.9375 C-63.694375 110.710625 -63.01375 110.48375 -62.3125 110.25 C-60.63957828 105.23123485 -61.0859838 100.00449987 -61.0625 94.75 C-61.041875 93.59628906 -61.02125 92.44257813 -61 91.25390625 C-60.99484375 90.14917969 -60.9896875 89.04445313 -60.984375 87.90625 C-60.9750293 86.89369141 -60.96568359 85.88113281 -60.95605469 84.83789062 C-61.10332213 82.23064201 -61.10332213 82.23064201 -62.64550781 80.45898438 C-64.41355584 79.04910325 -64.41355584 79.04910325 -67.3125 78.25 C-67.45746508 74.47956968 -67.54645607 70.70985258 -67.625 66.9375 C-67.6878418 65.3297168 -67.6878418 65.3297168 -67.75195312 63.68945312 C-67.76806641 62.66142578 -67.78417969 61.63339844 -67.80078125 60.57421875 C-67.84005737 59.1524231 -67.84005737 59.1524231 -67.88012695 57.7019043 C-67.3125 55.25 -67.3125 55.25 -64.84448242 53.54223633 C-64.00892822 53.11579834 -63.17337402 52.68936035 -62.3125 52.25 C-61.03889691 49.70279382 -61.18708857 47.44195034 -61.12475586 44.63891602 C-60.7596874 31.36330883 -56.95862173 20.76420895 -47.3125 11.25 C-32.91568898 -0.45162019 -17.61040371 -0.29348366 0 0 Z " fill="#F9EFEF" transform="translate(401.3125,48.75)"/>
<path d="M0 0 C0.43570313 0.37511719 0.87140625 0.75023437 1.3203125 1.13671875 C5.18607599 4.45859777 9.07657648 7.74642927 13 11 C11.57303689 15.57782964 9.25538036 18.03107885 5.8125 21.3125 C1.87952103 25.11736891 -1.83766312 29.00983395 -5.390625 33.171875 C-7.53510502 35.60783774 -9.84243452 37.85482863 -12.15795898 40.12670898 C-13.93181137 41.93065456 -15.58963525 43.78865604 -17.23828125 45.70703125 C-20.94716094 49.97248787 -24.7973427 54.0876821 -28.6875 58.1875 C-35.02970111 64.89880842 -41.32383634 71.6505677 -47.57324219 78.44824219 C-50.00472083 81.09274566 -52.43933253 83.73435459 -54.875 86.375 C-55.35646484 86.89698975 -55.83792969 87.41897949 -56.33398438 87.95678711 C-62.5276536 94.6642216 -68.76475567 101.33124016 -75 108 C-80.3940281 104.7484597 -84.50492515 100.69492006 -88.875 96.1875 C-93.47519053 91.46765133 -98.13206727 86.94462665 -103.12939453 82.64575195 C-105.88393468 80.22231746 -108.44027198 77.62581918 -111 75 C-114.83864741 71.10849685 -118.74301614 67.4088161 -122.91015625 63.8671875 C-127.4726012 59.79083482 -131.71084962 55.36011058 -136 51 C-133.66764935 47.35699212 -131.36966736 44.12468016 -128.25 41.125 C-127.63640625 40.52945313 -127.0228125 39.93390625 -126.390625 39.3203125 C-125.93171875 38.88460937 -125.4728125 38.44890625 -125 38 C-121.86968554 39.39848491 -119.65139968 41.05620549 -117.171875 43.4140625 C-116.45386719 44.09339844 -115.73585938 44.77273438 -114.99609375 45.47265625 C-114.25488281 46.18292969 -113.51367188 46.89320313 -112.75 47.625 C-112.02425781 48.31207031 -111.29851562 48.99914062 -110.55078125 49.70703125 C-106.24178734 53.80095951 -102.01073332 57.96275399 -97.83911133 62.1965332 C-95.31022205 64.67640909 -92.63735182 66.96673573 -89.94140625 69.26171875 C-87.95915195 71.03657421 -86.18268946 72.92428456 -84.375 74.875 C-82.22834342 77.00711941 -80.85521663 78.06777094 -78.0625 79.375 C-73.07851675 78.76471634 -70.43244089 75.46583039 -67 72 C-66.39929688 71.42378906 -65.79859375 70.84757812 -65.1796875 70.25390625 C-62.22670917 67.38700128 -59.45160644 64.40669092 -56.765625 61.2890625 C-53.05340247 57.02713512 -49.20237648 52.91197061 -45.3125 48.8125 C-40.47257598 43.69148337 -35.64524503 38.56103758 -30.875 33.375 C-26.58343785 28.7093691 -22.26758482 24.06740505 -17.9375 19.4375 C-11.91564828 12.99704803 -5.94309036 6.51314188 0 0 Z " fill="#FBF1F1" transform="translate(453,338)"/>
<path d="M0 0 C1.21107422 -0.01611328 2.42214844 -0.03222656 3.66992188 -0.04882812 C11.87414992 -0.05331867 17.9194257 0.54480525 24.375 6 C24.91511719 6.43699219 25.45523438 6.87398438 26.01171875 7.32421875 C30.87377741 13.09295502 32.301136 18.86326051 32.25390625 26.265625 C32.26320412 27.49959015 32.26320412 27.49959015 32.27268982 28.75848389 C32.27974484 30.48285751 32.27669011 32.20729988 32.26391602 33.93164062 C32.24995889 36.57027148 32.28428808 39.20541289 32.32226562 41.84375 C32.32321613 43.52604253 32.32136169 45.2083395 32.31640625 46.890625 C32.32966446 47.67608704 32.34292267 48.46154907 32.35658264 49.27081299 C32.29664571 52.78419118 31.96036039 54.93674152 29.87866211 57.8034668 C24.98838005 60.11597796 20.34640527 59.90310224 15 59.87890625 C13.29710815 59.88820412 13.29710815 59.88820412 11.55981445 59.89768982 C9.16260637 59.90478514 6.76534899 59.9016191 4.36816406 59.88891602 C0.70025019 59.87504821 -2.96511393 59.90913219 -6.6328125 59.94726562 C-8.96354229 59.9482168 -11.29427528 59.94635807 -13.625 59.94140625 C-14.72094482 59.95466446 -15.81688965 59.96792267 -16.94604492 59.98158264 C-21.65535399 59.92397535 -24.47503668 59.8478559 -28.50146484 57.27392578 C-30.76825854 53.56723833 -31.03513549 50.52704116 -30.9765625 46.30078125 C-30.98134613 45.53251511 -30.98612976 44.76424896 -30.99105835 43.97270203 C-30.99445188 42.34970041 -30.98528742 40.72662994 -30.96435547 39.10375977 C-30.93775953 36.64895452 -30.96401963 34.19879755 -30.99609375 31.74414062 C-31.01610082 23.13211193 -30.84720243 15.41881868 -25.3125 8.3125 C-22.79576759 5.98592727 -20.2655304 4.05026739 -17.3125 2.3125 C-16.73677246 1.96485596 -16.16104492 1.61721191 -15.56787109 1.2590332 C-10.76109545 -0.7582724 -5.13426222 -0.01353258 0 0 Z " fill="#050303" transform="translate(121.3125,67.6875)"/>
<path d="M0 0 C1.49956993 -0.00361794 1.49956993 -0.00361794 3.0294342 -0.00730896 C5.14002454 -0.00633111 7.25064072 0.00704769 9.36108398 0.03198242 C12.58341103 0.06625474 15.8029892 0.05264632 19.02539062 0.03320312 C21.07943871 0.04010293 23.13347973 0.04977652 25.1875 0.0625 C26.14704086 0.05754013 27.10658173 0.05258026 28.09519958 0.04747009 C33.7867428 0.14713492 37.16617863 0.79410998 41.66015625 4.62890625 C47.11218319 10.67034151 46.86995948 15.66835553 46.91015625 23.44140625 C46.93078125 24.42689453 46.95140625 25.41238281 46.97265625 26.42773438 C47.00658703 32.74310053 46.57140271 37.36054689 42.1953125 42.2734375 C37.78989539 45.767389 34.7605301 46.72818416 29.24633789 46.82177734 C28.38186539 46.83784027 27.51739288 46.8539032 26.62672424 46.87045288 C22.69590296 46.91512106 18.76524416 46.95592981 14.83422852 46.97900391 C12.76152338 46.99559205 10.68887611 47.02291942 8.61645508 47.06103516 C5.62160709 47.11578558 2.6280934 47.13767078 -0.3671875 47.15234375 C-1.29127914 47.17501312 -2.21537079 47.1976825 -3.16746521 47.22103882 C-7.49346379 47.20682846 -9.73378572 47.02635126 -13.42163086 44.60791016 C-15.840612 40.85120813 -16.06272744 37.77673301 -16.00390625 33.44140625 C-16.00868988 32.66128174 -16.01347351 31.88115723 -16.0184021 31.07739258 C-16.02179383 29.43341039 -16.01264206 27.7893601 -15.99169922 26.14550781 C-15.96491767 23.6358333 -15.99146575 21.13062996 -16.0234375 18.62109375 C-16.02013327 17.01952143 -16.01372674 15.41795187 -16.00390625 13.81640625 C-16.0140274 13.07044189 -16.02414856 12.32447754 -16.03457642 11.5559082 C-15.95294451 7.90839626 -15.41402306 5.74524441 -13.44458008 2.65649414 C-8.97755863 -0.26075152 -5.23175363 -0.07213623 0 0 Z " fill="#040404" transform="translate(106.33984375,334.37109375)"/>
<path d="M0 0 C1.02095261 -0.0038269 2.04190521 -0.00765381 3.09379578 -0.01159668 C5.25321437 -0.01431743 7.41266583 -0.00694492 9.57202148 0.00976562 C12.86452552 0.03110615 16.15483096 0.01000281 19.44726562 -0.015625 C21.54818187 -0.01298046 23.64909676 -0.00785288 25.75 0 C26.72939041 -0.00809692 27.70878082 -0.01619385 28.71784973 -0.02453613 C34.87659127 0.05918394 38.53380673 0.93320182 43.57421875 4.53125 C47.9554982 9.07585105 48.06851852 13.27153403 48.07226562 19.296875 C48.05228516 20.36421875 48.03230469 21.4315625 48.01171875 22.53125 C48.01880859 23.59859375 48.02589844 24.6659375 48.03320312 25.765625 C47.98773019 31.39027762 47.83909331 35.73180611 44.57421875 40.53125 C40.51373774 44.28719494 37.46077845 45.63780797 31.98266602 45.72412109 C31.05482803 45.74018402 30.12699005 45.75624695 29.17103577 45.77279663 C24.94305225 45.81729029 20.71522322 45.85828212 16.48706055 45.88134766 C14.25518386 45.8979367 12.02336093 45.92526509 9.79174805 45.96337891 C6.57442668 46.01803464 3.35834751 46.04000138 0.140625 46.0546875 C-0.85738632 46.07735687 -1.85539764 46.10002625 -2.88365173 46.12338257 C-9.68228459 46.10256994 -9.68228459 46.10256994 -13.05297852 43.51245117 C-14.79423251 39.73111514 -15.00119447 36.39443315 -14.95703125 32.30859375 C-14.96085815 31.52609756 -14.96468506 30.74360138 -14.96862793 29.93739319 C-14.97134102 28.28922228 -14.96402202 26.64100788 -14.94726562 24.99291992 C-14.92581589 22.47281946 -14.9470998 19.95556003 -14.97265625 17.43554688 C-14.97001343 15.83072289 -14.96488938 14.22590067 -14.95703125 12.62109375 C-14.96512817 11.86996811 -14.9732251 11.11884247 -14.98156738 10.34495544 C-14.92450717 7.15762754 -14.6077598 4.85690767 -13.04418945 2.05883789 C-8.86592462 -0.37877545 -4.75196897 -0.03904391 0 0 Z " fill="#030304" transform="translate(105.42578125,398.46875)"/>
<path d="M0 0 C1.485 -0.05607422 1.485 -0.05607422 3 -0.11328125 C11.23841447 -0.21240656 11.23841447 -0.21240656 14.9296875 2.06640625 C17.6966115 4.87525334 17.6809519 7.72443381 17.8359375 11.55078125 C17.80175539 13.93048089 17.7240116 16.30961533 17.625 18.6875 C17.439375 24.9678125 17.439375 24.9678125 17.25 31.375 C6.03 31.375 -5.19 31.375 -16.75 31.375 C-16.8325 27.53875 -16.915 23.7025 -17 19.75 C-17.03641602 18.55165527 -17.07283203 17.35331055 -17.11035156 16.11865234 C-17.17499214 9.91002888 -17.03984434 6.03027552 -12.75 1.375 C-8.90215617 -0.54892191 -4.23327647 0.05970005 0 0 Z " fill="#FB6219" transform="translate(121.75,81.625)"/>
<path d="M0 0 C11.22 0 22.44 0 34 0 C34 5.94 34 11.88 34 18 C22.78 18 11.56 18 0 18 C0 12.06 0 6.12 0 0 Z " fill="#66A3F7" transform="translate(105,349)"/>
<path d="M0 0 C11.22 0 22.44 0 34 0 C34 5.61 34 11.22 34 17 C22.78 17 11.56 17 0 17 C0 11.39 0 5.78 0 0 Z " fill="#69A7FC" transform="translate(105,413)"/>
<path d="M0 0 C2.73385746 2.08514552 3.86064839 3.27694918 4.51757812 6.68554688 C4.52208984 7.68650391 4.52660156 8.68746094 4.53125 9.71875 C4.53640625 10.81574219 4.5415625 11.91273438 4.546875 13.04296875 C4.53140625 14.18378906 4.5159375 15.32460937 4.5 16.5 C4.51546875 17.64082031 4.5309375 18.78164062 4.546875 19.95703125 C4.54171875 21.05402344 4.5365625 22.15101563 4.53125 23.28125 C4.52673828 24.28220703 4.52222656 25.28316406 4.51757812 26.31445312 C3.86064839 29.72305082 2.73385746 30.91485448 0 33 C-5.92707971 33.72788698 -5.92707971 33.72788698 -8.68994141 31.85351562 C-10.57397385 29.1879222 -10.38843203 27.14802314 -10.3984375 23.90625 C-10.40230469 22.71128906 -10.40617187 21.51632813 -10.41015625 20.28515625 C-10.39855469 19.03605469 -10.38695312 17.78695312 -10.375 16.5 C-10.38660156 15.25089844 -10.39820313 14.00179687 -10.41015625 12.71484375 C-10.40628906 11.51988281 -10.40242188 10.32492188 -10.3984375 9.09375 C-10.39505371 7.99740234 -10.39166992 6.90105469 -10.38818359 5.77148438 C-10 3 -10 3 -8.68994141 1.14648438 C-5.79992543 -0.81415056 -3.36676849 -0.4134628 0 0 Z " fill="#060505" transform="translate(337,127)"/>
</svg>
